<svg width="40" height="40" viewBox="0 0 40 40" fill="none" xmlns="http://www.w3.org/2000/svg">
<rect width="40" height="40" fill="#00804D"/>
<mask id="mask0_39_11556" style="mask-type:alpha" maskUnits="userSpaceOnUse" x="0" y="0" width="40" height="40">
<rect width="40" height="40" fill="#505050"/>
</mask>
<g mask="url(#mask0_39_11556)">
<path d="M27.2698 -0.000114066C28.717 1.44582 29.5302 3.40742 29.5302 5.45297C29.5302 7.49853 28.717 9.46064 27.2698 10.9066C25.8226 12.3525 25.0099 14.3141 25.0099 16.3591C25.0099 18.4052 25.8226 20.3668 27.2698 21.8127C28.717 23.2587 29.5302 25.2203 29.5302 27.2658C29.5302 29.3119 28.717 31.2735 27.2698 32.7194C25.8226 34.1654 25.0099 36.127 25.0099 38.1725C25.0099 40.2186 25.8226 42.1802 27.2698 43.6261C28.717 45.072 29.5302 47.0336 29.5302 49.0792C29.5302 51.1242 28.717 53.0863 27.2698 54.5323C25.8226 55.9787 25.0099 57.9403 25.0099 59.9854C25.0099 62.0309 25.8226 63.993 27.2698 65.439C28.717 66.8849 29.5302 68.8465 29.5302 70.892C29.5302 72.9376 28.717 74.8992 27.2698 76.3451C25.8226 77.7916 25.0099 79.7532 25.0099 81.7987C25.0099 83.8443 25.8226 85.8059 27.2698 87.2518L21.8159 92.6318L16.362 87.2518C17.8092 85.8059 18.6219 83.8443 18.6219 81.7987C18.6219 79.7532 17.8092 77.7916 16.362 76.3451C14.9148 74.8992 14.1016 72.9376 14.1016 70.892C14.1016 68.8465 14.9148 66.8849 16.362 65.439C17.8092 63.993 18.6219 62.0309 18.6219 59.9854C18.6219 57.9403 17.8092 55.9787 16.362 54.5323C14.9148 53.0863 14.1016 51.1242 14.1016 49.0792C14.1016 47.0336 14.9148 45.072 16.362 43.6261C17.8092 42.1802 18.6219 40.2186 18.6219 38.1725C18.6219 36.127 17.8092 34.1654 16.362 32.7194C14.9148 31.2735 14.1016 29.3119 14.1016 27.2658C14.1016 25.2203 14.9148 23.2587 16.362 21.8127C17.8092 20.3668 18.6219 18.4052 18.6219 16.3591C18.6219 14.3141 17.8092 12.3525 16.362 10.9066C14.9148 9.46064 14.1016 7.49853 14.1016 5.45297C14.1016 3.40742 14.9148 1.44582 16.362 -0.000114066" stroke="white" stroke-width="1.06667" stroke-linecap="square"/>
<path d="M49.092 -0.000114066C50.5392 1.44582 51.3525 3.40742 51.3525 5.45297C51.3525 7.49853 50.5392 9.46064 49.092 10.9066C47.6449 12.3525 46.8321 14.3141 46.8321 16.3591C46.8321 18.4052 47.6449 20.3668 49.092 21.8127C50.5392 23.2587 51.3525 25.2203 51.3525 27.2658C51.3525 29.3119 50.5392 31.2735 49.092 32.7194C47.6449 34.1654 46.8321 36.127 46.8321 38.1725C46.8321 40.2186 47.6449 42.1802 49.092 43.6261C50.5392 45.072 51.3525 47.0336 51.3525 49.0792C51.3525 51.1242 50.5392 53.0863 49.092 54.5323C47.6449 55.9787 46.8321 57.9403 46.8321 59.9854C46.8321 62.0309 47.6449 63.993 49.092 65.439C50.5392 66.8849 51.3525 68.8465 51.3525 70.892C51.3525 72.9376 50.5392 74.8992 49.092 76.3451C47.6449 77.7916 46.8321 79.7532 46.8321 81.7987C46.8321 83.8443 47.6449 85.8059 49.092 87.2518L43.6387 92.6318L38.1843 87.2518C39.6315 85.8059 40.4442 83.8443 40.4442 81.7987C40.4442 79.7532 39.6315 77.7916 38.1843 76.3451C36.7371 74.8992 35.9238 72.9376 35.9238 70.892C35.9238 68.8465 36.7371 66.8849 38.1843 65.439C39.6315 63.993 40.4442 62.0309 40.4442 59.9854C40.4442 57.9403 39.6315 55.9787 38.1843 54.5323C36.7371 53.0863 35.9238 51.1242 35.9238 49.0792C35.9238 47.0336 36.7371 45.072 38.1843 43.6261C39.6315 42.1802 40.4442 40.2186 40.4442 38.1725C40.4442 36.127 39.6315 34.1654 38.1843 32.7194C36.7371 31.2735 35.9238 29.3119 35.9238 27.2658C35.9238 25.2203 36.7371 23.2587 38.1843 21.8127C39.6315 20.3668 40.4442 18.4052 40.4442 16.3591C40.4442 14.3141 39.6315 12.3525 38.1843 10.9066C36.7371 9.46064 35.9238 7.49853 35.9238 5.45297C35.9238 3.40742 36.7371 1.44582 38.1843 -0.000114066" stroke="white" stroke-width="1.06667" stroke-linecap="square"/>
<path d="M5.45389 -0.000114066C6.90107 1.44582 7.71381 3.40742 7.71381 5.45297C7.71381 7.49853 6.90107 9.46064 5.45389 10.9066C4.0067 12.3525 3.19344 14.3141 3.19344 16.3591C3.19344 18.4052 4.0067 20.3668 5.45389 21.8127C6.90107 23.2587 7.71381 25.2203 7.71381 27.2658C7.71381 29.3119 6.90107 31.2735 5.45389 32.7194C4.0067 34.1654 3.19344 36.127 3.19344 38.1725C3.19344 40.2186 4.0067 42.1802 5.45389 43.6261C6.90107 45.072 7.71381 47.0336 7.71381 49.0792C7.71381 51.1242 6.90107 53.0863 5.45389 54.5323C4.0067 55.9787 3.19344 57.9403 3.19344 59.9854C3.19344 62.0309 4.0067 63.993 5.45389 65.439C6.90107 66.8849 7.71381 68.8465 7.71381 70.892C7.71381 72.9376 6.90107 74.8992 5.45389 76.3451C4.0067 77.7916 3.19344 79.7532 3.19344 81.7987C3.19344 83.8443 4.0067 85.8059 5.45389 87.2518L0 92.6318" stroke="white" stroke-width="1.06667" stroke-linecap="square"/>
</g>
</svg>
