<svg width="188" height="50" viewBox="0 0 188 50" fill="none" xmlns="http://www.w3.org/2000/svg">
<path d="M92.898 19.8819C93.2013 19.9957 93.6363 20.0526 94.0723 20.0526C95.5301 20.0526 96.6286 19.2753 96.6286 17.5312C96.6286 16.0725 95.6628 15.2573 94.2609 15.2573C93.8069 15.2573 93.2761 15.3132 92.898 15.4659V19.8819ZM90.6061 13.9114C91.5151 13.5322 92.898 13.21 94.2988 13.21C97.0646 13.21 98.9394 14.7834 98.9394 17.4554C98.9394 20.3938 97.1774 22.0431 94.243 22.0431C93.6742 22.0431 93.1813 21.9663 92.898 21.8725V25.2648H90.6061V13.9114Z" fill="#2E3092"/>
<path d="M103.162 21.8531H100.889V14.0437C101.817 13.5508 103.029 13.2664 104.261 13.2664C104.924 13.2664 105.397 13.3233 106.022 13.4939V15.6929C105.472 15.4655 104.866 15.4086 104.317 15.4086C103.9 15.4086 103.521 15.4844 103.162 15.5982V21.8531Z" fill="#2E3092"/>
<path d="M111.361 15.1811C110.131 15.1811 109.24 16.11 109.24 17.6266C109.24 19.1422 110.131 20.0711 111.361 20.0711C112.592 20.0711 113.483 19.1422 113.483 17.6266C113.483 16.11 112.592 15.1811 111.361 15.1811ZM111.361 13.2095C113.88 13.2095 115.792 14.9915 115.792 17.6266C115.792 20.2607 113.88 22.0427 111.361 22.0427C108.843 22.0427 106.948 20.2607 106.948 17.6266C106.948 14.9915 108.843 13.2095 111.361 13.2095Z" fill="#2E3092"/>
<path d="M119.448 21.8531L116.19 13.3991H118.652L120.812 19.5972L122.971 13.3991H125.357L122.119 21.8531H119.448Z" fill="#2E3092"/>
<path d="M129.012 21.8528H126.739V13.3988H129.012V21.8528ZM126.511 10.8406C126.511 10.0633 127.117 9.45667 127.875 9.45667C128.613 9.45667 129.238 10.0633 129.238 10.8406C129.238 11.5799 128.613 12.1865 127.875 12.1865C127.117 12.1865 126.511 11.5799 126.511 10.8406Z" fill="#2E3092"/>
<path d="M131.416 13.9489C132.609 13.494 134.181 13.2096 135.451 13.2096C137.647 13.2096 139.068 14.0248 139.068 16.5461V21.8531H136.776V16.6968C136.776 15.7499 136.264 15.257 135.28 15.257C134.73 15.257 134.163 15.3518 133.689 15.5034V21.8531H131.416V13.9489Z" fill="#2E3092"/>
<path d="M147.683 15.9961C146.982 15.4274 146.3 15.2188 145.524 15.2188C144.123 15.2188 143.119 16.0909 143.119 17.6075C143.119 19.0482 144.085 20.033 145.62 20.033C146.415 20.033 147.115 19.7676 147.759 19.2757V21.4169C147.001 21.8719 146.167 22.0425 145.296 22.0425C142.569 22.0425 140.827 20.2984 140.827 17.6454C140.827 14.9724 142.702 13.2104 145.278 13.2104C146.244 13.2104 146.964 13.3989 147.683 13.8349V15.9961Z" fill="#2E3092"/>
<path d="M152.057 21.8528H149.784V13.3988H152.057V21.8528ZM149.556 10.8406C149.556 10.0633 150.163 9.45667 150.921 9.45667C151.66 9.45667 152.284 10.0633 152.284 10.8406C152.284 11.5799 151.66 12.1865 150.921 12.1865C150.163 12.1865 149.556 11.5799 149.556 10.8406Z" fill="#2E3092"/>
<path d="M159.52 16.8871C159.5 15.8445 159.008 15.0862 157.928 15.0862C156.943 15.0862 156.299 15.7876 156.091 16.8871H159.52ZM156.072 18.2521V18.29C156.243 19.4843 157.417 20.0899 158.553 20.0899C159.69 20.0899 160.541 19.8245 161.375 19.3316V21.2653C160.599 21.8151 159.463 22.0425 158.326 22.0425C155.58 22.0425 153.856 20.3553 153.856 17.7203C153.856 14.9345 155.618 13.2094 157.985 13.2094C160.618 13.2094 161.641 14.9535 161.641 17.1905V18.2521H156.072Z" fill="#2E3092"/>
<path d="M90.0948 29.5516H98.2764V31.6548L92.7279 38.706H98.4091V40.8102H90V38.706L95.4547 31.6548H90.0948V29.5516Z" fill="#2E3092"/>
<path d="M107.498 40.5639C106.532 40.8293 105.073 40.9999 104.014 40.9999C101.57 40.9999 100.036 40.2416 100.036 37.7392V32.3563H102.328V37.5496C102.328 38.6312 102.802 39.1231 103.994 39.1231C104.317 39.1231 104.79 39.0862 105.206 39.0094V32.3563H107.498V40.5639Z" fill="#2E3092"/>
<path d="M112.08 40.8101H109.807V32.3561H112.08V40.8101ZM109.579 29.7979C109.579 29.0206 110.185 28.414 110.943 28.414C111.681 28.414 112.306 29.0206 112.306 29.7979C112.306 30.5372 111.681 31.1439 110.943 31.1439C110.185 31.1439 109.579 30.5372 109.579 29.7979Z" fill="#2E3092"/>
<path d="M119.939 34.4415C119.58 34.2708 119.106 34.176 118.538 34.176C117.155 34.176 116.226 35.0291 116.226 36.5268C116.226 38.1381 117.231 39.0481 118.84 39.0481C119.125 39.0481 119.56 39.0291 119.939 38.9523V34.4415ZM122.212 40.6016C121.207 40.867 119.901 40.9997 118.764 40.9997C115.848 40.9997 113.916 39.4462 113.916 36.6026C113.916 33.9106 115.716 32.1676 118.347 32.1676C118.935 32.1676 119.56 32.2424 119.939 32.432V27.9211H122.212V40.6016Z" fill="#2E3092"/>
<path d="M137.816 29.5516H140.203V40.8102H137.816V36.2425H132.683V40.8102H130.277V29.5516H132.683V34.1193H137.816V29.5516Z" fill="#2E3092"/>
<path d="M146.299 34.1384C145.068 34.1384 144.178 35.0673 144.178 36.5839C144.178 38.0995 145.068 39.0284 146.299 39.0284C147.53 39.0284 148.421 38.0995 148.421 36.5839C148.421 35.0673 147.53 34.1384 146.299 34.1384ZM146.299 32.1669C148.818 32.1669 150.73 33.9489 150.73 36.5839C150.73 39.218 148.818 41 146.299 41C143.781 41 141.886 39.218 141.886 36.5839C141.886 33.9489 143.781 32.1669 146.299 32.1669Z" fill="#2E3092"/>
<path d="M154.765 40.8101H152.492V27.9211H154.765V40.8101Z" fill="#2E3092"/>
<path d="M159.404 40.8101H157.131V27.9211H159.404V40.8101Z" fill="#2E3092"/>
<path d="M165.825 37.2471H165.066C164.007 37.2471 163.381 37.5504 163.381 38.2708C163.381 38.9912 163.969 39.3125 164.878 39.3125C165.124 39.3125 165.521 39.2935 165.825 39.2187V37.2471ZM165.825 35.2755C165.825 34.4604 165.142 34.1192 164.309 34.1192C163.306 34.1192 162.529 34.4225 161.866 34.8206V32.849C162.624 32.414 163.628 32.1675 164.707 32.1675C166.638 32.1675 168.079 32.9248 168.079 35.1808V40.6395C167.264 40.8291 165.975 40.9807 164.896 40.9807C162.757 40.9807 161.108 40.3362 161.108 38.3846C161.108 36.6215 162.529 35.7874 164.896 35.7874H165.825V35.2755Z" fill="#2E3092"/>
<path d="M170.178 32.9063C171.371 32.4514 172.943 32.167 174.213 32.167C176.409 32.167 177.83 32.9822 177.83 35.5035V40.8105H175.538V35.6541C175.538 34.7073 175.026 34.2144 174.042 34.2144C173.493 34.2144 172.925 34.3092 172.451 34.4608V40.8105H170.178V32.9063Z" fill="#2E3092"/>
<path d="M185.575 34.4415C185.216 34.2708 184.742 34.176 184.174 34.176C182.792 34.176 181.863 35.0291 181.863 36.5268C181.863 38.1381 182.867 39.0481 184.477 39.0481C184.761 39.0481 185.196 39.0291 185.575 38.9523V34.4415ZM187.848 40.6016C186.843 40.867 185.537 40.9997 184.401 40.9997C181.484 40.9997 179.553 39.4462 179.553 36.6026C179.553 33.9106 181.353 32.1676 183.984 32.1676C184.572 32.1676 185.196 32.2424 185.575 32.432V27.9211H187.848V40.6016Z" fill="#2E3092"/>
<path d="M124.021 36.5646V39.2336L128.357 36.3022V33.6342L124.021 36.5646Z" fill="#2E3092"/>
<path d="M66.0391 49.6389H81.5173L78.6926 47.2483L81.2 44.9724H66.095L65.6659 49.2248C65.644 49.4463 65.8166 49.6389 66.0391 49.6389Z" fill="#FFD800"/>
<path d="M14.0643 47.6035H41.2142H68.3641V44.9724H66.3297C66.1132 44.9724 66.0034 44.69 66.177 44.5633L67.8882 43.3241C68.0628 43.1964 67.952 42.914 67.7365 42.914H41.2142H14.6919C14.4753 42.914 14.3646 43.1964 14.5402 43.3241L16.2494 44.5633C16.425 44.69 16.3142 44.9724 16.0977 44.9724H14.0643V47.6035Z" fill="#FFD800"/>
<path d="M0.911163 49.6389H16.3883C16.6108 49.6389 16.7844 49.4463 16.7625 49.2248L16.3325 44.9724H1.22745L3.73481 47.2483L0.911163 49.6389Z" fill="#FFD800"/>
<path d="M41.2141 41.7061C48.1145 41.7061 54.6997 37.8298 54.6997 27.6068V10.634H27.7274V27.6068C27.7274 37.8298 34.3126 41.7061 41.2141 41.7061Z" fill="#FFD800"/>
<path d="M51.0104 5.80444C51.0104 6.22949 51.19 6.61761 51.6011 6.61761C52.0171 6.61761 52.1967 6.23049 52.1967 5.80444C52.1967 5.44525 52.0171 5.10003 51.6011 5.10003C51.19 5.10003 51.0104 5.44525 51.0104 5.80444Z" fill="#FFD800"/>
<path d="M37.7561 6.5235C38.1671 6.5235 38.3477 6.13537 38.3477 5.71033C38.3477 5.35114 38.1671 5.00591 37.7561 5.00591C37.34 5.00591 37.1604 5.35114 37.1604 5.71033C37.1604 6.13637 37.34 6.5235 37.7561 6.5235Z" fill="#FFD800"/>
<path d="M44.0806 5.71045C44.0806 6.13549 44.2602 6.52362 44.6713 6.52362C45.0874 6.52362 45.266 6.13649 45.266 5.71045C45.266 5.35126 45.0874 5.00604 44.6713 5.00604C44.2602 5.00604 44.0806 5.35126 44.0806 5.71045Z" fill="#FFD800"/>
<path d="M55.7156 2.08328L54.238 2.7897C54.0185 3.12993 54.0185 3.6318 54.1961 4.18555L53.6573 3.68768C53.3899 3.44023 53.1784 3.33647 52.9848 3.33647C52.7453 3.33647 52.5987 3.47116 52.4709 3.75752L52.2285 4.30429L53.1295 5.99249L51.6368 7.76151L49.9965 5.95258L51.2647 4.17458L51.1689 3.56395C51.117 3.22671 50.9075 3.06009 50.6301 3.06009C50.3258 3.06009 49.9965 3.18381 49.2372 3.58491C49.8898 2.9224 50.0195 2.45445 50.0195 1.8079L48.6944 -2.78765e-05H47.8194L46.5034 1.8079C46.5034 2.45445 46.6291 2.9224 47.2487 3.58491C46.3816 3.16685 46.0514 3.03115 45.798 3.03115C45.5964 3.03115 45.3729 3.21274 45.3071 3.55098L45.1983 4.12569L46.4166 5.89172L44.6475 7.76151L42.9015 5.80292L44.3063 4.09376L44.2395 3.65475C44.1786 3.26064 44.015 2.9643 43.5969 2.9643C43.2726 2.9643 42.8875 3.10598 42.1591 3.47116C42.8177 2.81264 42.8875 2.27485 42.8875 1.71412L41.6293 -2.78765e-05H41.2143H40.7982L39.54 1.71412C39.54 2.27485 39.6089 2.81264 40.2694 3.47116C39.54 3.10598 39.1549 2.9643 38.8296 2.9643C38.4116 2.9643 38.2479 3.26064 38.1881 3.65475L38.1202 4.09376L39.5261 5.80292L37.78 7.76151L36.011 5.89172L37.2302 4.12569L37.1195 3.55098C37.0546 3.21274 36.8301 3.03115 36.6296 3.03115C36.3752 3.03115 36.0469 3.16685 35.1789 3.58491C35.7985 2.9224 35.9242 2.45445 35.9242 1.8079L34.6081 -2.78765e-05H33.7331L32.4081 1.8079C32.4081 2.45445 32.5378 2.9224 33.1913 3.58491C32.432 3.18381 32.1018 3.06009 31.7975 3.06009C31.5201 3.06009 31.3106 3.22671 31.2587 3.56395L31.1639 4.17458L32.432 5.95258L30.7917 7.76151L29.2971 5.99249L30.1991 4.30429L29.9566 3.75752C29.8289 3.47116 29.6812 3.33647 29.4428 3.33647C29.2502 3.33647 29.0387 3.44023 28.7703 3.68768L28.2315 4.18555C28.4101 3.6318 28.4091 3.12993 28.1896 2.7897L26.7119 2.08328L26.3258 2.28284L28.6196 9.25415H41.2133H53.8079L56.1028 2.28284L55.7156 2.08328Z" fill="#FFD800"/>
<path d="M30.8263 6.61761C31.2374 6.61761 31.418 6.22949 31.418 5.80444C31.418 5.44525 31.2374 5.10003 30.8263 5.10003C30.4103 5.10003 30.2307 5.44525 30.2307 5.80444C30.2307 6.23049 30.4103 6.61761 30.8263 6.61761Z" fill="#FFD800"/>
<path d="M28.1117 38.9925C27.7067 38.9925 27.3634 39.217 27.1329 39.3876L26.5293 39.8326H25.6014L20.8411 35.0723C21.9775 35.0563 23.0302 34.6123 23.8144 34.0127C19.8763 32.2826 19.5879 28.2317 16.4899 26.4796C15.549 26.6412 14.3327 27.3706 13.8578 28.0301C14.1362 28.2287 14.3058 28.4691 14.3058 28.7964C14.3058 29.3721 13.776 29.7912 13.1045 29.7443C12.9858 29.397 12.9209 29.0738 12.9209 28.7166C12.9209 27.9313 13.33 27.3786 13.8728 26.9835C15.0671 26.1144 17.1853 25.6176 18.6131 23.5791C17.0347 22.752 16.2035 21.877 15.8264 20.3484C15.2696 20.6098 14.6221 20.8084 13.765 20.8084C12.9588 20.8084 12.1277 20.5968 11.4033 20.2387C11.2068 21.7343 10.6959 23.2299 9.8229 24.7495C8.32227 27.3606 6.32477 28.3205 4.63557 28.3205C2.82165 28.3205 1.60938 27.4863 1.60938 26.2741C1.60938 24.9371 2.58718 24.1269 4.86904 23.3417C7.74158 22.3549 8.89099 21.5098 8.89099 19.9363C8.89099 19.3207 8.66351 18.767 8.23647 18.3309C8.40708 18.0147 8.51285 17.6704 8.51285 17.3242C8.51285 16.7754 8.27937 16.1429 7.7765 15.649L5.49563 13.416C5.19631 13.7433 4.74432 13.9608 4.22848 13.9608C3.30656 13.9608 2.49139 13.2234 2.49139 12.1868C1.62434 12.4512 0.946869 13.3013 0.946869 14.329C0.946869 14.9027 1.1574 15.4854 1.60439 15.9144L2.4445 16.7216V18.322C2.65103 18.2262 2.91544 18.1693 3.12597 18.1693C3.6877 18.1693 4.15665 18.4676 4.60863 18.9017C5.10751 19.3816 5.61137 19.619 6.23697 19.619C6.53729 19.619 6.82764 19.5472 7.09504 19.4255C7.25967 19.6061 7.36443 19.8286 7.36443 20.104C7.36443 20.8593 6.05438 21.5307 4.14368 22.1154C1.4687 22.9336 0 24.2766 0 26.2741C0 28.54 1.89973 29.8351 4.4869 29.8351C5.0656 29.8351 5.58443 29.7862 6.06934 29.6764L6.72387 33.0847H1.4198C1.67124 33.5816 1.777 33.881 1.777 34.3509C1.777 35.188 1.12247 36.1738 0.329259 36.8543L4.98678 43.8475H8.3552C9.18334 43.8475 9.56348 43.3806 9.76802 42.753L10.1152 42.7141L10.5842 41.9159C10.4166 41.2194 9.4647 40.6717 8.6226 40.6717C8.09977 40.6717 7.58393 41.437 7.29558 42.0027C5.83387 40.8842 4.76029 39.6829 4.76029 38.1793C4.76029 36.8433 5.59341 35.6629 7.40135 35.6629C8.32926 35.6629 9.34397 36.0052 10.4365 36.8303L13.8708 33.5906L13.2392 30.5335C15.556 30.9535 17.2063 31.8435 17.2063 33.4429C17.2063 34.2801 16.8152 34.9246 16.0489 35.4704L24.1147 41.7892H29.9027L30.0414 40.3035L29.0586 39.4315C28.7423 39.1501 28.4699 38.9925 28.1117 38.9925Z" fill="#DA1F3D"/>
<path d="M80.6507 34.3506C80.6507 33.8807 80.7565 33.5813 81.0069 33.0844H75.7039L76.3584 29.6761C76.8443 29.7869 77.3611 29.8348 77.9408 29.8348C80.528 29.8348 82.4267 28.5407 82.4267 26.2748C82.4267 24.2763 80.959 22.9343 78.284 22.1151C76.3733 21.5304 75.0623 20.8599 75.0623 20.1036C75.0623 19.8283 75.1681 19.6068 75.3327 19.4252C75.6001 19.5479 75.8904 19.6187 76.1898 19.6187C76.8163 19.6187 77.3192 19.3823 77.8191 18.9024C78.2701 18.4673 78.74 18.169 79.3008 18.169C79.5113 18.169 79.7757 18.2259 79.9822 18.3217V16.7223L80.8233 15.9141C81.2693 15.485 81.4799 14.9024 81.4799 14.3286C81.4799 13.301 80.8034 12.4519 79.9363 12.1865C79.9363 13.2241 79.1222 13.9605 78.1992 13.9605C77.6824 13.9605 77.2304 13.744 76.9311 13.4157L74.6512 15.6497C74.1474 16.1426 73.9149 16.7761 73.9149 17.3249C73.9149 17.6711 74.0206 18.0144 74.1903 18.3306C73.7652 18.7667 73.5367 19.3214 73.5367 19.937C73.5367 21.5095 74.6851 22.3556 77.5587 23.3424C79.8405 24.1266 80.8193 24.9368 80.8193 26.2748C80.8193 27.486 79.6051 28.3202 77.7922 28.3202C76.103 28.3202 74.1045 27.3603 72.6058 24.7492C71.7328 23.2296 71.2209 21.734 71.0254 20.2383C70.299 20.5975 69.4679 20.8081 68.6617 20.8081C67.8056 20.8081 67.1591 20.6095 66.6013 20.3491C66.2242 21.8777 65.3931 22.7517 63.8146 23.5788C65.2434 25.6172 67.3616 26.1141 68.5559 26.9832C69.0987 27.3783 69.5058 27.931 69.5058 28.7163C69.5058 29.0735 69.4419 29.3967 69.3232 29.744C68.6517 29.7919 68.1209 29.3728 68.1209 28.7971C68.1209 28.4688 68.2915 28.2284 68.5709 28.0298C68.095 27.3703 66.8787 26.6409 65.9388 26.4803C62.8388 28.2314 62.5514 32.2822 58.6123 34.0134C59.3965 34.613 60.4512 35.056 61.5876 35.072L56.8253 39.8333H55.8984L55.2948 39.3873C55.0643 39.2166 54.7211 38.9922 54.316 38.9922C53.9578 38.9922 53.6854 39.1508 53.3681 39.4322L52.3863 40.3042L52.526 41.7889H58.312L66.3788 35.4711C65.6136 34.9243 65.2214 34.2798 65.2214 33.4436C65.2214 31.8442 66.8707 30.9532 69.1885 30.5332L68.5569 33.5913L71.9912 36.83C73.0828 36.0059 74.0985 35.6626 75.0264 35.6626C76.8353 35.6626 77.6684 36.844 77.6684 38.179C77.6684 39.6836 76.5948 40.8849 75.1321 42.0024C74.8448 41.4377 74.327 40.6714 73.8061 40.6714C72.964 40.6714 72.0112 41.2191 71.8435 41.9156L72.3125 42.7138L72.6597 42.7527C72.8642 43.3803 73.2444 43.8472 74.0725 43.8472H77.4399L82.0975 36.854C81.3043 36.1745 80.6507 35.1877 80.6507 34.3506Z" fill="#DA1F3D"/>
<path d="M58.2109 22.3191C57.9605 22.8599 57.7879 23.4685 57.6751 24.128C57.5474 24.8713 57.296 25.6047 56.6245 26.6264L56.2723 27.1632L55.7814 26.8519C55.2226 26.8828 54.7597 27.1333 54.5701 27.6281C54.4883 27.8427 54.4524 28.0981 54.4913 28.4094L54.5322 28.7436L54.5352 28.7666C54.0742 28.9661 53.8308 29.2705 53.7609 29.7075C53.743 29.8172 53.73 29.929 53.735 30.0577L54.0303 30.7601L54.0902 30.9038H54.7587C54.7417 31.1113 54.7667 31.2889 54.8106 31.4505C54.8784 31.708 55.0051 31.9125 55.1777 32.0412L55.3633 32.1809C55.4072 32.2148 55.4831 32.2438 55.5519 32.2727C55.6896 32.3316 55.8462 32.3795 55.9939 32.3795C56.3002 32.3795 56.834 32.129 57.1154 31.9165C57.2102 32.0851 57.3678 32.1719 57.5923 32.1749C57.5963 32.1749 57.5983 32.1769 57.6023 32.1769C57.7749 32.1769 57.9655 32.1071 58.1531 31.9295L58.3207 31.7708L58.5452 31.5603C58.7717 31.3458 58.8694 31.0953 58.8694 30.8389C58.8694 30.4937 58.5402 30.0637 58.1461 29.7923L58.2937 29.5698L59.2167 30.2113C59.6267 29.3034 59.1658 28.5201 59.1658 27.7868C59.1658 27.0504 59.7195 26.5176 60.8131 25.5608C61.5255 24.9372 61.9246 24.4503 62.2897 23.6631C62.3117 22.7112 62.0902 21.6935 61.6252 21.0689C60.6714 22.0706 59.7674 22.4618 58.2109 22.3191Z" fill="#DA1F3D"/>
<path d="M47.9937 29.2527C49.4604 29.2527 50.6487 28.4734 50.6487 27.1105C50.6487 25.9072 49.8096 25.099 48.2002 24.6071C47.0508 24.2549 46.2426 23.8728 46.2426 23.356C46.2426 23.2143 46.3185 23.0975 46.4163 22.9928C46.5899 23.0586 46.7675 23.1045 46.9401 23.1045C47.3162 23.1045 47.6096 22.9718 47.9189 22.6695C48.2072 22.3911 48.4816 22.2564 48.7819 22.2564C48.9356 22.2564 49.0922 22.3023 49.194 22.3472V21.3924L49.7118 20.8755C49.9743 20.6111 50.105 20.2659 50.105 19.9207C50.105 19.2771 49.7069 18.8321 49.1741 18.6346C49.1741 19.1724 48.77 19.7012 48.1404 19.7012C47.861 19.7012 47.5796 19.5924 47.3641 19.3769L45.9603 20.8187C45.7358 21.0501 45.5542 21.3614 45.5542 21.7855C45.5542 22.001 45.628 22.1916 45.7348 22.3602C45.4684 22.6555 45.3497 23.0157 45.3497 23.356C45.3497 24.2978 46.0341 24.7508 47.7642 25.3455C49.1371 25.8174 49.7069 26.2305 49.7069 27.1055C49.7069 27.8349 48.9965 28.3407 47.9039 28.3407C46.8882 28.3407 45.7098 27.8069 44.7819 26.1926C44.0885 24.9833 43.9318 24.3298 43.842 23.6114C42.982 24.0185 42.1119 24.0474 41.2379 23.7082C40.9057 24.4315 40.297 25.0601 39.4958 25.4782C39.8011 26.1766 41.4375 27.0377 42.08 27.3729C42.7226 27.7082 42.9221 28.206 42.9221 28.5573C42.9221 28.7758 42.8473 29.0152 42.7256 29.1958C42.2357 29.1958 42.0182 28.9284 42.0182 28.649C42.0182 28.4365 42.1439 28.2909 42.2796 28.1751C42.0241 27.8229 41.4564 27.5276 41.0254 27.3949C39.1925 28.3587 38.4651 30.7912 36.3609 31.784C36.9575 32.239 37.5672 32.4275 38.1199 32.4355L35.2853 35.2701H34.7276L34.3644 35.0018C34.2407 34.911 34.0182 34.7653 33.8216 34.7643C33.648 34.7633 33.4125 34.8441 33.2878 34.9549L32.6133 35.5535L32.3459 36.4475H36.1803L41.0344 32.6451C40.5734 32.3158 40.3379 31.9796 40.3379 31.5136C40.3379 30.5947 41.4544 29.8962 42.7445 29.5809L42.3464 31.5136L44.3579 33.4103C44.9316 32.8915 45.7388 32.6451 46.3314 32.6451C47.2165 32.6451 47.8001 33.2706 47.8001 34.1527C47.8001 35.2133 47.1257 36.241 46.3594 36.7169C46.1439 36.2519 45.8944 35.9167 45.5253 35.9167C45.177 35.9167 44.4806 36.1671 44.3808 36.665L44.6622 37.1459L44.8717 37.1689C44.9945 37.547 45.2239 37.8274 45.7228 37.8274H47.7153L50.4851 33.5241C50.0172 33.1429 49.63 32.5882 49.63 31.9726C49.63 31.7052 49.7118 31.4238 49.8455 31.2093H46.6467L47.0319 29.1439C47.3422 29.2168 47.6654 29.2527 47.9937 29.2527Z" fill="#DA1F3D"/>
<path d="M16.4008 2.97928C16.312 3.11298 16.2222 3.20178 16.0007 3.20178C15.9049 3.44723 15.5777 3.66374 15.1995 3.66374C14.8493 3.66374 14.518 3.47916 14.3085 3.15788C14.6677 2.87951 15.3811 2.80567 16.4008 2.97928ZM23.9299 19.0202C23.9299 18.1043 24.762 17.4547 24.762 16.4071C24.762 15.4991 24.4377 14.9264 23.5617 14.4634C24.7999 14.4455 25.7148 13.6233 25.7148 13.0945C23.883 13.0945 22.992 11.1359 20.6792 11.1359C18.988 11.1359 18.8094 11.981 17.652 11.981C16.735 11.981 16.738 11.539 15.425 11.543V11.2247C16.2272 11.0761 16.9216 10.9783 17.652 11.536C18.0521 11.2696 18.1419 10.9583 18.1419 10.6909C18.1419 10.201 17.7857 9.88874 17.3846 9.75604C17.3277 9.26913 17.1661 8.99076 16.7859 8.8391L16.5834 9.62234C15.3811 9.66624 15.1337 10.0973 14.4043 10.0973C13.8266 10.0973 13.5622 9.69118 13.4534 9.07956C13.4055 8.81416 13.3846 8.51283 13.3846 8.18357C13.3846 8.07881 13.3906 7.993 13.3936 7.89522C13.4455 6.01745 13.9773 5.39086 14.7176 5.39086C15.3901 5.39086 15.7084 5.87377 16.8149 6.1262L16.9166 6.96332C17.2279 6.96033 17.5183 6.661 17.6969 6.3048C18.6138 6.44848 19.0329 6.16312 19.0329 5.12346V4.1287L19.2544 3.8613V2.69692L17.4285 2.1252L17.0733 2.2589L16.8059 1.76901L14.5799 1.45771L14.091 1.85781H10.963C10.4362 1.85781 10.1918 2.0394 10.1918 2.32476C10.1918 2.59615 10.4632 3.00822 10.8124 3.30256C8.58738 3.69966 7.87897 4.97679 7.87897 5.93364C7.87897 7.45521 8.30801 7.43526 8.30801 9.27911C8.30801 10.1272 8.0885 10.8695 7.29529 11.6627L10.073 14.4415C11.0987 15.4662 11.3472 16.2804 11.3472 16.898C11.3472 17.5126 11.0189 18.209 10.4701 18.653C11.3472 19.6498 12.6073 20.1038 13.7787 20.1038C14.7944 20.1038 15.6096 19.7795 16.3529 19.1818C16.5754 21.5545 17.6081 22.3726 19.4499 23.1758C19.5347 21.6603 20.0586 20.6525 20.8438 19.987C21.6181 21.1524 22.4811 21.6473 23.5777 21.6473C24.7261 21.6473 25.3616 21.0067 25.4903 20.4669C24.3828 20.4669 23.9299 19.7346 23.9299 19.0202Z" fill="#DA1F3D"/>
<path d="M26.8157 6.44169L26.8507 5.91587L26.8606 5.77419C26.8866 5.37808 26.719 5.02088 26.4296 4.86124C26.3288 4.80537 26.2141 4.77244 26.0874 4.77244H25.8809C25.9228 4.50405 25.7841 4.31048 25.5885 4.18676C25.4438 4.09497 25.2712 4.0371 25.1036 4.0371C24.5828 4.0371 24.1597 4.25062 23.9223 4.77244C23.5212 4.77244 23.0762 5.28429 23.0762 6.08549C23.0762 7.10719 24.3892 7.39255 23.9542 8.15583L22.4057 10.8687C23.8295 11.3317 24.2166 12.0341 25.348 12.3624L26.2061 8.93009C26.4146 8.09597 27.4693 8.00517 27.4842 7.19898C27.4862 7.0593 27.4403 6.90963 27.3615 6.77494C27.3396 6.73702 27.3286 6.69512 27.2987 6.66119L26.8157 6.44169Z" fill="#DA1F3D"/>
<path d="M38.061 24.1669C37.3875 24.7835 36.3827 25.013 35.6703 24.6129L34.5598 26.9167L34.2256 26.6573C33.9642 26.6344 33.7367 26.7242 33.588 26.9098C33.4922 27.0285 33.4224 27.1782 33.4184 27.3877L33.4174 27.4535L33.4144 27.5803C33.148 27.678 33.0053 27.8127 32.9325 28.0312C32.9145 28.0851 32.8976 28.14 32.8876 28.2058L32.9814 28.567L33.0123 28.6838L33.3685 28.7357C33.3007 28.9502 33.2997 29.1637 33.4314 29.3014L33.4354 29.3064L33.8025 29.6885L33.8095 29.6955C34.1318 29.7983 34.3613 29.7184 34.5459 29.454C34.6596 29.6745 34.7823 29.7035 34.917 29.6546C34.93 29.6506 34.942 29.6496 34.9559 29.6436L35.4239 29.4261L35.4738 29.4041C35.5356 29.3153 35.5875 29.1846 35.5875 29.0639C35.5875 28.8694 35.4089 28.6628 35.2573 28.5231L35.359 28.4084L35.6135 28.6459C35.8629 28.2298 35.6514 27.6581 35.9477 27.4116L38.4311 25.3453C38.3693 24.8274 38.2046 24.4333 38.061 24.1669Z" fill="#DA1F3D"/>
<path d="M33.1609 17.4453L33.0711 17.563L32.9683 17.7007C32.9394 17.8204 32.9713 17.9452 33.0232 18.0399C33.093 18.1607 33.2058 18.2295 33.3355 18.2774C33.56 18.3622 33.8384 18.3812 34.0499 18.465C34.1407 18.5019 34.2215 18.5488 34.2774 18.6226L35.3589 20.0764C35.4497 19.2622 36.0085 18.5618 36.5992 18.2255L35.4018 17.8095C35.0397 17.6837 34.9648 17.3615 35.0057 17.0831C35.1275 16.8995 35.2222 16.5114 35.0437 16.1811C34.9139 15.9427 34.7473 15.8199 34.5887 15.771C34.463 15.7321 34.3422 15.7361 34.2484 15.786C34.1427 15.6593 33.9631 15.5914 33.7705 15.5875C33.6438 15.5845 33.5131 15.6034 33.3904 15.6703C33.2647 15.7381 33.1878 15.8209 33.1439 15.9067C33.089 16.0125 33.0881 16.1262 33.1449 16.231L32.9563 16.3338C32.9384 16.3597 32.9304 16.3877 32.9164 16.4146C32.8137 16.6141 32.7997 16.8327 32.9254 17.0601C32.9324 17.0741 32.9354 17.0891 32.9444 17.104L33.1609 17.4453Z" fill="#DA1F3D"/>
<path d="M28.6661 29.7068C28.5963 29.2708 28.3538 28.9654 27.8918 28.7669L27.8948 28.7439L27.9367 28.4097C27.9757 28.0984 27.9387 27.842 27.8569 27.6285C27.6684 27.1326 27.2044 26.8831 26.6457 26.8522L26.1548 27.1635L25.8026 26.6267C25.1321 25.605 24.8796 24.8707 24.7519 24.1283C24.6392 23.4688 24.4676 22.8602 24.2161 22.3194C22.6596 22.4621 21.7567 22.071 20.8018 21.0682C20.3378 21.6928 20.1163 22.7115 20.1383 23.6624C20.5035 24.4496 20.9016 24.9375 21.615 25.5611C22.7075 26.518 23.2613 27.0508 23.2613 27.7871C23.2613 28.5204 22.8003 29.3027 23.2104 30.2116L24.1343 29.5701L24.282 29.7926C23.8869 30.063 23.5576 30.494 23.5576 30.8392C23.5576 31.0957 23.6564 31.3461 23.8829 31.5596L24.1064 31.7711L24.275 31.9298C24.4626 32.1064 24.6521 32.1772 24.8257 32.1772C24.8297 32.1772 24.8317 32.1752 24.8357 32.1752C25.0602 32.1722 25.2179 32.0844 25.3117 31.9168C25.593 32.1293 26.1278 32.3798 26.4341 32.3798C26.5818 32.3798 26.7374 32.3319 26.8761 32.273C26.944 32.2431 27.0208 32.2151 27.0657 32.1802L27.2503 32.0415C27.4219 31.9118 27.5486 31.7083 27.6175 31.4509C27.6604 31.2892 27.6863 31.1116 27.6693 30.9031H28.3368L28.3967 30.7604L28.693 30.058C28.698 29.9293 28.6841 29.8165 28.6661 29.7068Z" fill="#DA1F3D"/>
<path d="M41.5463 13.5453C41.2789 13.5453 41.1452 13.4386 41.0644 13.2241C40.9307 13.2241 40.8768 13.1702 40.8229 13.0894C41.4535 12.9986 41.8506 13.0255 42.0821 13.1971C42.0023 13.3308 41.8417 13.5453 41.5463 13.5453ZM46.3036 18.3166C45.8945 17.9195 45.668 17.4915 45.668 16.7731C45.668 16.1046 45.9524 15.4969 45.9524 14.7835C45.9524 14.0941 45.5254 13.5234 44.1864 13.2839C44.4189 13.0744 44.5605 12.8569 44.5605 12.6773C44.5605 12.4847 44.4009 12.4149 44.0736 12.4149H42.2138L41.9195 12.1734L40.5795 12.361L40.4179 12.6563L40.2033 12.5755L39.1058 12.9197V13.6212L39.2395 13.7818V14.3805C39.2395 14.9651 39.4959 15.1836 40.0437 15.0919C40.1515 15.3064 40.3251 15.486 40.5136 15.488L40.5795 14.9831C40.9467 14.9123 41.5463 14.5411 41.8337 14.5411C42.2896 14.5411 42.6159 14.8743 42.6359 16.1435C42.6359 16.1804 42.6389 16.2103 42.6389 16.2502C42.6389 16.4777 42.6039 16.6573 42.554 16.812C42.4563 17.1103 42.2807 17.2829 42.0242 17.2829C41.4735 17.2829 41.3597 16.9966 40.7132 16.9966L40.5915 16.5256C40.352 16.6144 40.2373 16.8669 40.2313 17.0774C39.9888 17.1582 39.7753 17.3159 39.7753 17.6102C39.7753 17.7708 39.8292 17.9883 40.1195 18.1899C40.5216 17.8876 41.238 17.9185 41.8476 18.1081V18.5102C41.0494 18.4004 40.7122 18.595 40.1624 18.6319C39.5518 18.6728 39.2395 18.3405 38.3046 18.3405C37.0355 18.3405 35.9349 19.2016 35.9349 20.3351C35.9349 21.2031 36.3311 21.4366 36.3311 22.4922C36.3311 23.031 35.9609 23.453 35.2924 23.462C35.5348 23.9399 35.9609 24.2273 36.4837 24.2273C37.251 24.2273 37.8965 23.6356 38.111 23.2325C38.595 23.7703 38.8644 24.361 38.9711 25.0604C40.0427 24.5775 40.6593 23.92 40.9018 22.8484C41.3468 23.2266 41.9803 23.3672 42.4134 23.3682C43.0489 23.3682 43.8032 23.0549 44.3929 22.5231C44.1634 22.4343 43.8342 22.14 43.8342 21.5513C43.8342 21.1283 44.0158 20.6045 44.6314 19.9888L46.3036 18.3166Z" fill="#DA1F3D"/>
<path d="M67.2278 3.66374C66.8497 3.66374 66.5234 3.44723 66.4276 3.20178C66.2051 3.20178 66.1163 3.11298 66.0265 2.97928C67.0463 2.80567 67.7606 2.87951 68.1198 3.15788C67.9103 3.47916 67.5781 3.66374 67.2278 3.66374ZM75.1331 11.6627C74.3388 10.8695 74.1203 10.1272 74.1203 9.27911C74.1203 7.43526 74.5494 7.45521 74.5494 5.93364C74.5494 4.97679 73.84 3.69966 71.615 3.30256C71.9642 3.00822 72.2356 2.59615 72.2356 2.32476C72.2356 2.0394 71.9911 1.85781 71.4653 1.85781H68.3373L67.8474 1.45771L65.6215 1.76901L65.3541 2.2589L64.9989 2.12521L63.174 2.69692V3.8613L63.3955 4.1287V5.12346C63.3955 6.16312 63.8145 6.44848 64.7315 6.3048C64.9101 6.661 65.2004 6.96033 65.5117 6.96332L65.6135 6.1262C66.72 5.87377 67.0383 5.38986 67.7098 5.38986C68.4511 5.38986 68.9839 6.01944 69.0338 7.90221C69.0358 7.99799 69.0428 8.08081 69.0428 8.18358C69.0428 8.51583 69.0218 8.81815 68.9739 9.08555C68.8642 9.69418 68.5988 10.0973 68.0231 10.0973C67.2937 10.0973 67.0463 9.66624 65.844 9.62234L65.6414 8.8391C65.2623 8.99076 65.1006 9.26913 65.0438 9.75504C64.6427 9.88874 64.2865 10.201 64.2865 10.6899C64.2865 10.9583 64.3753 11.2696 64.7754 11.536C65.5057 10.9783 66.2002 11.0761 67.0014 11.2247V11.543C65.6893 11.539 65.6933 11.981 64.7754 11.981C63.618 11.981 63.4404 11.1359 61.7492 11.1359C59.4344 11.1359 58.5454 13.0945 56.7135 13.0945C56.7135 13.6233 57.6284 14.4455 58.8657 14.4634C57.9896 14.9264 57.6664 15.4991 57.6664 16.4061C57.6664 17.4547 58.4985 18.1043 58.4985 19.0202C58.4985 19.7346 58.0455 20.4669 56.937 20.4669C57.0647 21.0067 57.7013 21.6473 58.8497 21.6473C59.9462 21.6473 60.8093 21.1524 61.5845 19.987C62.3698 20.6525 62.8926 21.6603 62.9784 23.1758C64.8203 22.3726 65.8529 21.5545 66.0744 19.1818C66.8178 19.7795 67.6339 20.1038 68.6496 20.1038C69.821 20.1038 71.0812 19.6488 71.9572 18.653C71.4074 18.209 71.0812 17.5126 71.0812 16.898C71.0812 16.2804 71.3286 15.4662 72.3543 14.4415L75.1331 11.6627Z" fill="#DA1F3D"/>
<path d="M58.473 8.15607C58.038 7.39279 59.3521 7.10743 59.3521 6.08573C59.3521 5.28454 58.9071 4.77169 58.506 4.77169C58.2685 4.25086 57.8444 4.03734 57.3236 4.03734C57.154 4.03734 56.9784 4.09621 56.8317 4.19C56.6402 4.31472 56.5045 4.50629 56.5464 4.77169H56.3408C56.2101 4.77169 56.0954 4.80761 55.9936 4.86448C55.7083 5.02512 55.5416 5.37932 55.5676 5.77344L55.5775 5.9221L55.6125 6.44193L55.1286 6.66144C55.0976 6.69636 55.0857 6.74026 55.0637 6.77917C54.9869 6.91187 54.942 7.06054 54.944 7.19923C54.9579 8.00541 56.0136 8.09521 56.2221 8.92933L57.0792 12.3626C58.2106 12.0343 58.5987 11.3319 60.0225 10.869L58.473 8.15607Z" fill="#DA1F3D"/>
<path d="M19.6844 46.2199L18.954 44.2723H19.399L19.9398 45.7999L20.4726 44.2723H20.9146L20.1853 46.2199H19.6844Z" fill="#DA1F3D"/>
<path d="M21.7365 46.2197H21.3204V44.2721H21.7365V46.2197Z" fill="#DA1F3D"/>
<path d="M23.846 44.8197C23.7073 44.692 23.5017 44.6101 23.2822 44.6101C22.922 44.6101 22.6766 44.8626 22.6766 45.2457C22.6766 45.6428 22.935 45.8952 23.2822 45.8952C23.37 45.8952 23.4558 45.8853 23.5117 45.8623V45.3185H23.9178V46.1048C23.7631 46.2036 23.5047 46.2524 23.2762 46.2524C22.6566 46.2524 22.2505 45.8653 22.2505 45.2457C22.2505 44.653 22.6696 44.239 23.2593 44.239C23.4888 44.239 23.6883 44.2889 23.846 44.3866V44.8197Z" fill="#DA1F3D"/>
<path d="M24.9463 46.2197H24.5302V44.2721H24.9463V46.2197Z" fill="#DA1F3D"/>
<path d="M25.6086 44.2721H26.0246V45.8555H26.7879V46.2197H25.6086V44.2721Z" fill="#DA1F3D"/>
<path d="M28.1575 44.6755L27.8662 45.4687H28.4449L28.1575 44.6755ZM27.7415 45.8069L27.5908 46.22H27.1548L27.9081 44.2724H28.409L29.1693 46.22H28.7183L28.5666 45.8069H27.7415Z" fill="#DA1F3D"/>
<path d="M30.2641 46.2199H29.854V44.6365H29.2544V44.2723H30.8637V44.6365H30.2641V46.2199Z" fill="#DA1F3D"/>
<path d="M32.5958 45.8559V46.2201H31.3346V44.2725H32.5758V44.6357H31.7437V45.0627H32.507V45.4199H31.7437V45.8559H32.5958Z" fill="#DA1F3D"/>
<path d="M35.2568 45.8754C35.3186 45.8824 35.4014 45.8854 35.4693 45.8854C35.8534 45.8854 36.1178 45.6758 36.1178 45.2199C36.1178 44.8228 35.8594 44.6192 35.4533 44.6192C35.3905 44.6192 35.3156 44.6232 35.2568 44.6292V45.8754ZM34.8407 44.282C34.9854 44.262 35.2208 44.2391 35.4264 44.2391C36.1378 44.2391 36.5439 44.6072 36.5439 45.2199C36.5439 45.8884 36.1208 46.2495 35.4234 46.2495C35.2109 46.2495 34.9874 46.2356 34.8407 46.2066V44.282Z" fill="#DA1F3D"/>
<path d="M38.2734 45.8559V46.2201H37.0122V44.2725H38.2534V44.6357H37.4213V45.0627H38.1846V45.4199H37.4213V45.8559H38.2734Z" fill="#DA1F3D"/>
<path d="M39.6619 44.6131C39.3276 44.6131 39.0752 44.8626 39.0752 45.2457C39.0752 45.6298 39.3276 45.8793 39.6619 45.8793C39.9961 45.8793 40.2475 45.6298 40.2475 45.2457C40.2475 44.8626 39.9961 44.6131 39.6619 44.6131ZM39.6619 44.239C40.2246 44.239 40.6736 44.653 40.6736 45.2457C40.6736 45.8394 40.2246 46.2524 39.6619 46.2524C39.0991 46.2524 38.6491 45.8394 38.6491 45.2457C38.6491 44.653 39.0991 44.239 39.6619 44.239Z" fill="#DA1F3D"/>
<path d="M43.9491 44.8163C43.8244 44.6916 43.6408 44.6127 43.4193 44.6127C43.0681 44.6127 42.8396 44.8721 42.8396 45.2463C42.8396 45.6294 43.0881 45.8789 43.4353 45.8789C43.6578 45.8789 43.8184 45.813 43.982 45.6783V46.1084C43.8024 46.2161 43.6149 46.252 43.4193 46.252C42.8097 46.252 42.4136 45.839 42.4136 45.2463C42.4136 44.6497 42.8256 44.2396 43.4193 44.2396C43.6149 44.2396 43.7925 44.2785 43.9491 44.3703V44.8163Z" fill="#DA1F3D"/>
<path d="M45.4351 44.6131C45.1008 44.6131 44.8484 44.8626 44.8484 45.2457C44.8484 45.6298 45.1008 45.8793 45.4351 45.8793C45.7693 45.8793 46.0217 45.6298 46.0217 45.2457C46.0217 44.8626 45.7693 44.6131 45.4351 44.6131ZM45.4351 44.239C45.9978 44.239 46.4478 44.653 46.4478 45.2457C46.4478 45.8394 45.9978 46.2524 45.4351 46.2524C44.8723 46.2524 44.4223 45.8394 44.4223 45.2457C44.4223 44.653 44.8723 44.239 45.4351 44.239Z" fill="#DA1F3D"/>
<path d="M48.2529 45.5836V44.2726H48.652V46.2202H48.2589L47.3549 44.9241V46.2202H46.9558V44.2726H47.3749L48.2529 45.5836Z" fill="#DA1F3D"/>
<path d="M49.3208 46.2199V44.2723H50.4533V44.6365H49.7359V45.1244H50.3804V45.4856H49.7359V46.2199H49.3208Z" fill="#DA1F3D"/>
<path d="M51.4077 46.2197H50.9917V44.2721H51.4077V46.2197Z" fill="#DA1F3D"/>
<path d="M52.4856 45.8754C52.5475 45.8824 52.6303 45.8854 52.6991 45.8854C53.0823 45.8854 53.3467 45.6758 53.3467 45.2199C53.3467 44.8228 53.0883 44.6192 52.6822 44.6192C52.6203 44.6192 52.5445 44.6232 52.4856 44.6292V45.8754ZM52.0695 44.282C52.2142 44.262 52.4497 44.2391 52.6562 44.2391C53.3676 44.2391 53.7727 44.6072 53.7727 45.2199C53.7727 45.8884 53.3507 46.2495 52.6522 46.2495C52.4397 46.2495 52.2162 46.2356 52.0695 46.2066V44.282Z" fill="#DA1F3D"/>
<path d="M55.5977 45.8559V46.2201H54.3365V44.2725H55.5768V44.6357H54.7456V45.0627H55.5089V45.4199H54.7456V45.8559H55.5977Z" fill="#DA1F3D"/>
<path d="M57.5006 45.5836V44.2726H57.8997V46.2202H57.5076L56.6036 44.9241V46.2202H56.2035V44.2726H56.6226L57.5006 45.5836Z" fill="#DA1F3D"/>
<path d="M59.3841 46.2199H58.974V44.6365H58.3753V44.2723H59.9837V44.6365H59.3841V46.2199Z" fill="#DA1F3D"/>
<path d="M61.7157 45.8559V46.2201H60.4546V44.2725H61.6958V44.6357H60.8636V45.0627H61.6269V45.4199H60.8636V45.8559H61.7157Z" fill="#DA1F3D"/>
<path d="M62.2438 45.6981C62.3905 45.8098 62.5551 45.8986 62.7706 45.8986C62.9373 45.8986 63.0859 45.8398 63.0859 45.6781C63.0859 45.5315 62.9642 45.4756 62.7617 45.4167C62.3705 45.308 62.2109 45.1443 62.2109 44.8161C62.2109 44.4459 62.4993 44.2394 62.8594 44.2394C63.079 44.2394 63.2386 44.2952 63.3773 44.384V44.7931C63.2226 44.6684 63.065 44.5936 62.8724 44.5936C62.7058 44.5936 62.613 44.6754 62.613 44.7971C62.613 44.9338 62.7248 44.9907 62.9512 45.0525C63.3404 45.1633 63.491 45.3379 63.491 45.6652C63.491 46.0722 63.1707 46.2528 62.7706 46.2528C62.5571 46.2528 62.3676 46.194 62.2438 46.1122V45.6981Z" fill="#DA1F3D"/>
<path d="M51.4848 41.8391L51.3691 41.7393C51.425 40.8074 51.9917 40.3993 52.4826 40.3993L52.735 41.5487C52.3858 41.5457 51.7722 41.5846 51.4848 41.8391Z" fill="#2E3092"/>
<path d="M53.419 41.6788C53.893 41.5591 54.3848 41.5471 54.7231 41.589C54.5495 41.3236 54.4866 41.1081 54.4866 40.8327C54.4866 40.7509 54.5036 40.5953 54.5205 40.5105C53.9279 40.6052 53.5597 40.8786 53.3352 41.5252L53.419 41.6788Z" fill="#2E3092"/>
<path d="M57.1538 41.8478H56.3536L56.3027 41.7451C56.5153 41.2811 56.8864 41.1255 57.1029 41.1255C57.2117 41.2392 57.2825 41.3859 57.2825 41.5335C57.2825 41.6413 57.2446 41.7501 57.1538 41.8478Z" fill="#2E3092"/>
<path d="M71.8239 43.0771L71.6982 42.9693C71.758 42.0554 72.2659 41.5136 72.9075 41.5136L72.9534 42.7618C72.7099 42.7668 72.1352 42.8007 71.8239 43.0771Z" fill="#2E3092"/>
<path d="M72.9639 43.6324L72.8801 43.4788C73.1046 42.8322 73.4728 42.5589 74.1094 42.4741C74.0525 42.6078 73.9986 42.7365 73.9986 42.8951C73.9986 43.1386 74.0854 43.3481 74.2131 43.5436C73.9377 43.4888 73.4379 43.5127 72.9639 43.6324Z" fill="#2E3092"/>
<path d="M76.5945 43.8843H75.7943L75.7434 43.7815C75.9549 43.3176 76.3271 43.1629 76.5426 43.1629C76.6523 43.2766 76.7232 43.4223 76.7232 43.57C76.7232 43.6777 76.6843 43.7865 76.5945 43.8843Z" fill="#2E3092"/>
<path d="M46.7582 37.8524L46.7283 37.7906C46.856 37.5112 47.0785 37.4184 47.2092 37.4184C47.275 37.4862 47.3179 37.574 47.3179 37.6628C47.3179 37.7277 47.294 37.7935 47.2391 37.8524H46.7582Z" fill="#2E3092"/>
<path d="M45.055 37.701C45.3394 37.6292 45.6407 37.6152 45.8063 37.6471C45.7285 37.5354 45.6756 37.4007 45.6756 37.249C45.6756 37.1692 45.6936 37.0654 45.7175 37.0036C45.3613 37.0554 45.1388 37.2201 45.0042 37.6082L45.055 37.701Z" fill="#2E3092"/>
<path d="M44.3681 37.3667L44.2932 37.3018C44.3631 36.3979 44.8929 36.4108 45.1184 36.4548L45.0386 37.1612C44.8011 37.1662 44.5786 37.225 44.3681 37.3667Z" fill="#2E3092"/>
<path d="M35.0014 36.4859L34.9715 36.424C35.0992 36.1447 35.3217 36.0509 35.4524 36.0509C35.5901 36.1936 35.5911 36.3732 35.4823 36.4859H35.0014Z" fill="#2E3092"/>
<path d="M33.2349 36.3842C33.4913 36.3303 33.7986 36.3103 33.9872 36.3303C33.8974 36.2295 33.8286 36.1038 33.8286 36.001C33.8286 35.9032 33.8685 35.7885 33.9553 35.6827C33.5422 35.7386 33.3197 35.9022 33.184 36.2914L33.2349 36.3842Z" fill="#2E3092"/>
<path d="M32.0706 36.4805L32.0017 36.4207C32.0775 35.7851 32.3998 35.6274 32.6961 35.6274L32.7959 36.3069C32.5974 36.3089 32.2442 36.3269 32.0706 36.4805Z" fill="#2E3092"/>
<path d="M30.9432 41.8323C30.6558 41.5778 30.0412 41.5389 29.692 41.5419L29.9454 40.3925C30.4363 40.3925 31.002 40.7996 31.0579 41.7325L30.9432 41.8323Z" fill="#2E3092"/>
<path d="M29.0081 41.6716L29.093 41.5179C28.8685 40.8714 28.4993 40.598 27.9066 40.5042C27.9246 40.588 27.9415 40.7437 27.9415 40.8265C27.9415 41.1019 27.8777 41.3164 27.7051 41.5828C28.0423 41.5409 28.5342 41.5518 29.0081 41.6716Z" fill="#2E3092"/>
<path d="M25.2733 41.8406C25.1835 41.7428 25.1446 41.634 25.1446 41.5263C25.1446 41.3786 25.2155 41.2329 25.3252 41.1192C25.5407 41.1192 25.9129 41.2739 26.1244 41.7378L26.0735 41.8406H25.2733Z" fill="#2E3092"/>
<path d="M10.6043 43.0702C10.293 42.7938 9.71824 42.7599 9.47479 42.7549L9.52069 41.5067C10.1612 41.5067 10.6701 42.0485 10.73 42.9624L10.6043 43.0702Z" fill="#2E3092"/>
<path d="M9.46422 43.6257C8.99028 43.5059 8.49041 43.482 8.21503 43.5359C8.34274 43.3413 8.42954 43.1318 8.42954 42.8883C8.42954 42.7297 8.37567 42.601 8.31879 42.4673C8.95436 42.5521 9.32353 42.8255 9.54803 43.472L9.46422 43.6257Z" fill="#2E3092"/>
<path d="M5.83367 43.8775C5.74287 43.7797 5.70496 43.671 5.70496 43.5632C5.70496 43.4155 5.7758 43.2689 5.88455 43.1551C6.10106 43.1551 6.47223 43.3108 6.68475 43.7747L6.63387 43.8775H5.83367Z" fill="#2E3092"/>
<path d="M53.761 29.7073C53.2562 29.9647 52.898 30.5404 52.8551 31.0702L53.0327 31.2039C53.3041 31.0533 53.6942 30.8687 54.0304 30.7599L53.7351 30.0575C53.7301 29.9298 53.7431 29.817 53.761 29.7073Z" fill="#2E3092"/>
<path d="M57.602 32.1772C57.598 32.1772 57.596 32.1752 57.592 32.1752C57.6988 32.3558 57.7926 32.5414 57.8414 32.718L58.0639 32.6731C58.2326 32.4196 58.3174 32.0944 58.3214 31.7711L58.1537 31.9287C57.9652 32.1063 57.7756 32.1772 57.602 32.1772Z" fill="#2E3092"/>
<path d="M54.5697 27.628C53.9361 27.7028 53.3674 28.1029 53.1669 28.6666L53.2557 28.7993C53.7196 28.7275 54.1127 28.7195 54.5328 28.7434L54.4919 28.4102C54.453 28.0979 54.4879 27.8425 54.5697 27.628Z" fill="#2E3092"/>
<path d="M55.1777 32.0413C55.0051 31.9126 54.8784 31.7081 54.8106 31.4506C54.5013 31.9136 54.4663 32.5691 54.7687 33.074L54.9912 33.1189C55.1049 32.8355 55.3254 32.5242 55.5519 32.2728C55.4831 32.2439 55.4072 32.2149 55.3633 32.181L55.1777 32.0413Z" fill="#2E3092"/>
<path d="M13.4533 9.07928C14.2735 8.38285 15.0567 8.03863 15.9128 8.03863C17.8435 8.03863 18.4222 8.79692 19.9208 8.79692C21.2767 8.79692 22.0759 8.16135 22.0759 7.03189C22.0759 6.12693 21.581 5.54324 20.6541 5.54324C20.0734 5.54324 19.376 5.80166 19.376 6.5819C19.376 7.12768 19.7671 7.49585 20.1962 7.49585C20.4496 7.49585 20.4536 7.32024 20.6521 7.32024C20.7499 7.32024 20.8487 7.38011 20.8487 7.53376C20.8487 7.7403 20.5923 8.11645 19.843 8.11645C18.7624 8.11645 17.6718 7.21248 16.0066 7.21248C14.9939 7.21248 14.1837 7.41802 13.3935 7.89495C13.3915 7.99273 13.3845 8.07854 13.3845 8.1833C13.3845 8.51356 13.4054 8.81388 13.4533 9.07928Z" fill="#2E3092"/>
<path d="M27.605 5.72363C27.3546 5.72363 27.0941 5.79448 26.8507 5.9152L26.8158 6.44202L27.2987 6.66152C27.3286 6.69545 27.3396 6.73735 27.3615 6.77527C27.5571 6.49689 27.8544 6.20954 28.1168 6.03493V5.81243C27.9831 5.76754 27.7826 5.72363 27.605 5.72363Z" fill="#2E3092"/>
<path d="M25.8804 4.77204H26.0869C26.2146 4.77204 26.3283 4.80596 26.4301 4.86084C26.6576 4.67725 26.91 4.49267 27.1166 4.35498V4.17638C26.8951 4.04368 26.6267 3.99878 26.3593 3.99878C26.1019 3.99878 25.8365 4.07561 25.588 4.18736C25.7836 4.31108 25.9233 4.50364 25.8804 4.77204Z" fill="#2E3092"/>
<path d="M34.2482 15.7859C34.342 15.736 34.4628 15.732 34.5885 15.7709C34.3979 15.4327 34.0118 15.2321 33.6556 15.291L33.6157 15.3688C33.6675 15.4317 33.7204 15.5085 33.7703 15.5873C33.9629 15.5913 34.1435 15.6592 34.2482 15.7859Z" fill="#2E3092"/>
<path d="M33.0713 17.5632L33.1611 17.4454L32.9446 17.1042C32.9356 17.0892 32.9326 17.0743 32.9256 17.0603C32.6582 17.1431 32.5006 17.2838 32.4347 17.3896L32.4726 17.5073C32.6522 17.4853 32.8827 17.5143 33.0713 17.5632Z" fill="#2E3092"/>
<path d="M33.0517 18.4498L33.0787 18.5715C33.2343 18.6553 33.5805 18.7202 34.0495 18.4657C33.838 18.3809 33.5606 18.362 33.3351 18.2782C33.2413 18.347 33.1445 18.4109 33.0517 18.4498Z" fill="#2E3092"/>
<path d="M33.1453 16.2312C33.0875 16.1264 33.0885 16.0127 33.1443 15.9059C32.8919 15.86 32.6095 15.9199 32.421 16.0456L32.4259 16.1674C32.5706 16.2262 32.7592 16.318 32.9168 16.4148C32.9298 16.3879 32.9388 16.3599 32.9568 16.334L33.1453 16.2312Z" fill="#2E3092"/>
<path d="M34.9167 29.6551C34.9826 29.8077 35.0394 29.9773 35.0494 30.13L35.1741 30.129C35.3537 29.9305 35.4365 29.668 35.4246 29.4266L34.9556 29.6431C34.9417 29.6491 34.9307 29.6501 34.9167 29.6551Z" fill="#2E3092"/>
<path d="M33.4054 29.9508L33.5202 29.9987C33.589 29.893 33.6928 29.7842 33.8025 29.6884L33.4354 29.3063C33.3645 29.4669 33.3326 29.6804 33.4054 29.9508Z" fill="#2E3092"/>
<path d="M32.9329 28.0313C32.7244 28.162 32.5587 28.3745 32.4979 28.5811L32.5797 28.6719C32.6924 28.636 32.8391 28.596 32.9818 28.5671L32.888 28.2059C32.898 28.1401 32.9139 28.0852 32.9329 28.0313Z" fill="#2E3092"/>
<path d="M33.5876 26.9098C33.3113 26.9457 33.0568 27.0944 32.9211 27.3228L32.9541 27.4037C33.0938 27.4057 33.2614 27.4256 33.417 27.4536L33.418 27.3877C33.422 27.1782 33.4919 27.0285 33.5876 26.9098Z" fill="#2E3092"/>
<path d="M27.9363 28.4099L27.8944 28.7431C28.3145 28.7192 28.7076 28.7272 29.1716 28.8L29.2614 28.6663C29.0598 28.1026 28.4911 27.7035 27.8575 27.6276C27.9393 27.8421 27.9752 28.0986 27.9363 28.4099Z" fill="#2E3092"/>
<path d="M24.2747 31.9292L24.106 31.7706C24.111 32.0949 24.1948 32.4201 24.3645 32.6736L24.586 32.7175C24.6349 32.5409 24.7286 32.3563 24.8354 32.1747C24.8324 32.1747 24.8304 32.1777 24.8264 32.1777C24.6518 32.1777 24.4622 32.1068 24.2747 31.9292Z" fill="#2E3092"/>
<path d="M27.0652 32.1807C27.0203 32.2146 26.9445 32.2436 26.8766 32.2725C27.1011 32.5249 27.3226 32.8352 27.4354 33.1186L27.6589 33.0737C27.9612 32.5698 27.9263 31.9133 27.6179 31.4513C27.5481 31.7078 27.4214 31.9123 27.2508 32.041L27.0652 32.1807Z" fill="#2E3092"/>
<path d="M29.5733 31.0704C29.5304 30.5406 29.1712 29.9649 28.6663 29.7065C28.6833 29.8172 28.6982 29.929 28.6932 30.0577L28.3969 30.7601C28.7332 30.8679 29.1233 31.0534 29.3947 31.2041L29.5733 31.0704Z" fill="#2E3092"/>
<path d="M42.6357 16.143C42.1547 15.8666 41.6728 15.7469 41.0742 15.7469C40.0684 15.7469 39.4099 16.2916 38.7574 16.2916C38.3044 16.2916 38.1498 16.0641 38.1498 15.9404C38.1498 15.8476 38.2096 15.8117 38.2685 15.8117C38.3892 15.8117 38.3912 15.9165 38.5439 15.9165C38.8023 15.9165 39.0398 15.695 39.0398 15.3657C39.0398 14.8948 38.6177 14.7381 38.2675 14.7381C37.7417 14.7381 37.4094 15.1193 37.4094 15.6371C37.4094 16.3505 38.025 16.7047 38.6935 16.7047C39.7881 16.7047 39.9637 16.2447 41.1301 16.2447C41.6289 16.2447 42.0869 16.4403 42.5538 16.8115C42.6037 16.6568 42.6387 16.4782 42.6387 16.2497C42.6387 16.2108 42.6357 16.1809 42.6357 16.143Z" fill="#2E3092"/>
<path d="M69.0333 7.90229C68.244 7.42437 67.4329 7.21983 66.4221 7.21983C64.7559 7.21983 63.6654 8.1238 62.5848 8.1238C61.8355 8.1238 61.579 7.74764 61.579 7.54111C61.579 7.38745 61.6778 7.32759 61.7756 7.32759C61.9752 7.32759 61.9791 7.5022 62.2326 7.5022C62.6606 7.5022 63.0517 7.13502 63.0517 6.58925C63.0517 5.80801 62.3543 5.55059 61.7736 5.55059C60.8467 5.55059 60.3518 6.13427 60.3518 7.03924C60.3518 8.1677 61.152 8.80427 62.506 8.80427C64.0056 8.80427 64.5843 8.04597 66.5159 8.04597C67.371 8.04597 68.1533 8.3902 68.9734 9.08563C69.0213 8.81823 69.0433 8.51591 69.0433 8.18366C69.0433 8.08089 69.0363 7.99808 69.0333 7.90229Z" fill="#2E3092"/>
<path d="M56.5468 4.77208C56.5049 4.50667 56.6406 4.31511 56.8321 4.19039C56.5867 4.08063 56.3233 4.0058 56.0678 4.0058C55.8004 4.0058 55.533 4.0507 55.3105 4.1844V4.362C55.5161 4.49869 55.7665 4.68228 55.993 4.86487C56.0958 4.808 56.2105 4.77208 56.3412 4.77208H56.5468Z" fill="#2E3092"/>
<path d="M55.6124 6.44169L55.5775 5.92186C55.334 5.80113 55.0726 5.73029 54.8231 5.73029C54.6446 5.73029 54.445 5.77519 54.3103 5.81909V6.04259C54.5717 6.2152 54.868 6.50255 55.0636 6.77893C55.0866 6.74002 55.0975 6.69612 55.1295 6.6612L55.6124 6.44169Z" fill="#2E3092"/>
</svg>
