<svg width="40" height="40" viewBox="0 0 40 40" fill="none" xmlns="http://www.w3.org/2000/svg">
<rect x="40" width="40" height="40" transform="rotate(90 40 0)" fill="#68B9E8"/>
<mask id="mask0_39_11579" style="mask-type:alpha" maskUnits="userSpaceOnUse" x="0" y="0" width="40" height="40">
<rect x="40" width="40" height="40" transform="rotate(90 40 0)" fill="#505050"/>
</mask>
<g mask="url(#mask0_39_11579)">
<path d="M40.0001 27.27C38.5542 28.7172 36.5926 29.5305 34.547 29.5305C32.5015 29.5305 30.5394 28.7172 29.0934 27.27C27.6475 25.8228 25.6859 25.0101 23.6409 25.0101C21.5948 25.0101 19.6332 25.8228 18.1873 27.27C16.7413 28.7172 14.7797 29.5305 12.7342 29.5305C10.6881 29.5305 8.7265 28.7172 7.28057 27.27C5.83464 25.8228 3.87304 25.0101 1.82749 25.0101C-0.218583 25.0101 -2.18018 25.8228 -3.62611 27.27C-5.07205 28.7172 -7.03364 29.5305 -9.0792 29.5305C-11.1242 29.5305 -13.0863 28.7172 -14.5323 27.27C-15.9787 25.8228 -17.9403 25.0101 -19.9854 25.0101C-22.0309 25.0101 -23.993 25.8228 -25.439 27.27C-26.8849 28.7172 -28.8465 29.5305 -30.892 29.5305C-32.9376 29.5305 -34.8992 28.7172 -36.3451 27.27C-37.7916 25.8228 -39.7532 25.0101 -41.7987 25.0101C-43.8443 25.0101 -45.8059 25.8228 -47.2518 27.27L-52.6318 21.8161L-47.2518 16.3623C-45.8059 17.8094 -43.8443 18.6222 -41.7987 18.6222C-39.7532 18.6222 -37.7916 17.8094 -36.3451 16.3623C-34.8992 14.9151 -32.9376 14.1018 -30.892 14.1018C-28.8465 14.1018 -26.8849 14.9151 -25.439 16.3623C-23.993 17.8094 -22.0309 18.6222 -19.9854 18.6222C-17.9403 18.6222 -15.9787 17.8094 -14.5323 16.3623C-13.0863 14.9151 -11.1242 14.1018 -9.0792 14.1018C-7.03364 14.1018 -5.07205 14.9151 -3.62611 16.3623C-2.18018 17.8094 -0.218583 18.6222 1.82749 18.6222C3.87304 18.6222 5.83464 17.8094 7.28057 16.3623C8.7265 14.9151 10.6881 14.1018 12.7342 14.1018C14.7797 14.1018 16.7413 14.9151 18.1873 16.3623C19.6332 17.8094 21.5948 18.6222 23.6409 18.6222C25.6859 18.6222 27.6475 17.8094 29.0934 16.3623C30.5394 14.9151 32.5015 14.1018 34.547 14.1018C36.5926 14.1018 38.5542 14.9151 40.0001 16.3623" stroke="white" stroke-width="1.06667" stroke-linecap="square"/>
<path d="M40.0001 49.0916C38.5542 50.5387 36.5926 51.352 34.547 51.352C32.5015 51.352 30.5394 50.5387 29.0934 49.0916C27.6475 47.6444 25.6859 46.8316 23.6409 46.8316C21.5948 46.8316 19.6332 47.6444 18.1873 49.0916C16.7413 50.5387 14.7797 51.352 12.7342 51.352C10.6881 51.352 8.7265 50.5387 7.28057 49.0916C5.83464 47.6444 3.87304 46.8316 1.82749 46.8316C-0.218583 46.8316 -2.18018 47.6444 -3.62611 49.0916C-5.07205 50.5387 -7.03364 51.352 -9.0792 51.352C-11.1242 51.352 -13.0863 50.5387 -14.5323 49.0916C-15.9787 47.6444 -17.9403 46.8316 -19.9854 46.8316C-22.0309 46.8316 -23.993 47.6444 -25.439 49.0916C-26.8849 50.5387 -28.8465 51.352 -30.892 51.352C-32.9376 51.352 -34.8992 50.5387 -36.3451 49.0916C-37.7916 47.6444 -39.7532 46.8316 -41.7987 46.8316C-43.8443 46.8316 -45.8059 47.6444 -47.2518 49.0916L-52.6318 43.6382L-47.2518 38.1838C-45.8059 39.631 -43.8443 40.4437 -41.7987 40.4437C-39.7532 40.4437 -37.7916 39.631 -36.3451 38.1838C-34.8992 36.7366 -32.9376 35.9233 -30.892 35.9233C-28.8465 35.9233 -26.8849 36.7366 -25.439 38.1838C-23.993 39.631 -22.0309 40.4437 -19.9854 40.4437C-17.9403 40.4437 -15.9787 39.631 -14.5323 38.1838C-13.0863 36.7366 -11.1242 35.9233 -9.0792 35.9233C-7.03364 35.9233 -5.07205 36.7366 -3.62611 38.1838C-2.18018 39.631 -0.218583 40.4437 1.82749 40.4437C3.87304 40.4437 5.83464 39.631 7.28057 38.1838C8.7265 36.7366 10.6881 35.9233 12.7342 35.9233C14.7797 35.9233 16.7413 36.7366 18.1873 38.1838C19.6332 39.631 21.5948 40.4437 23.6409 40.4437C25.6859 40.4437 27.6475 39.631 29.0934 38.1838C30.5394 36.7366 32.5015 35.9233 34.547 35.9233C36.5926 35.9233 38.5542 36.7366 40.0001 38.1838" stroke="white" stroke-width="1.06667" stroke-linecap="square"/>
<path d="M40.0001 5.45413C38.5542 6.90132 36.5926 7.71406 34.547 7.71406C32.5015 7.71406 30.5394 6.90132 29.0934 5.45413C27.6475 4.00695 25.6859 3.19369 23.6409 3.19369C21.5948 3.19369 19.6332 4.00695 18.1873 5.45413C16.7413 6.90132 14.7797 7.71406 12.7342 7.71406C10.6881 7.71406 8.7265 6.90132 7.28057 5.45413C5.83464 4.00695 3.87304 3.19369 1.82749 3.19369C-0.218583 3.19369 -2.18018 4.00695 -3.62611 5.45413C-5.07205 6.90131 -7.03364 7.71406 -9.0792 7.71406C-11.1242 7.71406 -13.0863 6.90131 -14.5323 5.45413C-15.9787 4.00695 -17.9403 3.19369 -19.9854 3.19369C-22.0309 3.19369 -23.993 4.00695 -25.439 5.45413C-26.8849 6.90131 -28.8465 7.71406 -30.892 7.71406C-32.9376 7.71406 -34.8992 6.90131 -36.3451 5.45413C-37.7916 4.00695 -39.7532 3.19369 -41.7987 3.19369C-43.8443 3.19369 -45.8059 4.00695 -47.2518 5.45413L-52.6318 0.000244141" stroke="white" stroke-width="1.06667" stroke-linecap="square"/>
</g>
</svg>
