<svg width="60" height="60" viewBox="0 0 60 60" fill="none" xmlns="http://www.w3.org/2000/svg">
<g clip-path="url(#clip0_39_10496)">
<path d="M60 0H0V60H60V0Z" fill="white"/>
<path d="M25.4549 3.63647H23.6367V5.45466H25.4549V3.63647Z" fill="#2E3092"/>
<path d="M27.2733 3.63647H25.4551V5.45466H27.2733V3.63647Z" fill="#2E3092"/>
<path d="M29.0916 3.63647H27.2734V5.45466H29.0916V3.63647Z" fill="#2E3092"/>
<path d="M34.5457 3.63647H32.7275V5.45466H34.5457V3.63647Z" fill="#2E3092"/>
<path d="M38.1824 3.63647H36.3643V5.45466H38.1824V3.63647Z" fill="#2E3092"/>
<path d="M40.0008 3.63647H38.1826V5.45466H40.0008V3.63647Z" fill="#2E3092"/>
<path d="M21.8182 5.45459H20V7.27277H21.8182V5.45459Z" fill="#2E3092"/>
<path d="M29.0916 5.45459H27.2734V7.27277H29.0916V5.45459Z" fill="#2E3092"/>
<path d="M30.909 5.45459H29.0908V7.27277H30.909V5.45459Z" fill="#2E3092"/>
<path d="M32.7274 5.45459H30.9092V7.27277H32.7274V5.45459Z" fill="#2E3092"/>
<path d="M36.3641 5.45459H34.5459V7.27277H36.3641V5.45459Z" fill="#2E3092"/>
<path d="M38.1824 5.45459H36.3643V7.27277H38.1824V5.45459Z" fill="#2E3092"/>
<path d="M23.6365 7.27295H21.8184V9.09113H23.6365V7.27295Z" fill="#2E3092"/>
<path d="M27.2733 7.27295H25.4551V9.09113H27.2733V7.27295Z" fill="#2E3092"/>
<path d="M29.0916 7.27295H27.2734V9.09113H29.0916V7.27295Z" fill="#2E3092"/>
<path d="M34.5457 7.27295H32.7275V9.09113H34.5457V7.27295Z" fill="#2E3092"/>
<path d="M36.3641 7.27295H34.5459V9.09113H36.3641V7.27295Z" fill="#2E3092"/>
<path d="M40.0008 7.27295H38.1826V9.09113H40.0008V7.27295Z" fill="#2E3092"/>
<path d="M41.8182 7.27295H40V9.09113H41.8182V7.27295Z" fill="#2E3092"/>
<path d="M23.6365 9.09106H21.8184V10.9092H23.6365V9.09106Z" fill="#2E3092"/>
<path d="M27.2733 9.09106H25.4551V10.9092H27.2733V9.09106Z" fill="#2E3092"/>
<path d="M29.0916 9.09106H27.2734V10.9092H29.0916V9.09106Z" fill="#2E3092"/>
<path d="M30.909 9.09106H29.0908V10.9092H30.909V9.09106Z" fill="#2E3092"/>
<path d="M32.7274 9.09106H30.9092V10.9092H32.7274V9.09106Z" fill="#2E3092"/>
<path d="M38.1824 9.09106H36.3643V10.9092H38.1824V9.09106Z" fill="#2E3092"/>
<path d="M40.0008 9.09106H38.1826V10.9092H40.0008V9.09106Z" fill="#2E3092"/>
<path d="M41.8182 9.09106H40V10.9092H41.8182V9.09106Z" fill="#2E3092"/>
<path d="M25.4549 10.9092H23.6367V12.7274H25.4549V10.9092Z" fill="#2E3092"/>
<path d="M27.2733 10.9092H25.4551V12.7274H27.2733V10.9092Z" fill="#2E3092"/>
<path d="M29.0916 10.9092H27.2734V12.7274H29.0916V10.9092Z" fill="#2E3092"/>
<path d="M30.909 10.9092H29.0908V12.7274H30.909V10.9092Z" fill="#2E3092"/>
<path d="M34.5457 10.9092H32.7275V12.7274H34.5457V10.9092Z" fill="#2E3092"/>
<path d="M20.0008 12.7273H18.1826V14.5455H20.0008V12.7273Z" fill="#2E3092"/>
<path d="M23.6365 12.7273H21.8184V14.5455H23.6365V12.7273Z" fill="#2E3092"/>
<path d="M25.4549 12.7273H23.6367V14.5455H25.4549V12.7273Z" fill="#2E3092"/>
<path d="M27.2733 12.7273H25.4551V14.5455H27.2733V12.7273Z" fill="#2E3092"/>
<path d="M29.0916 12.7273H27.2734V14.5455H29.0916V12.7273Z" fill="#2E3092"/>
<path d="M30.909 12.7273H29.0908V14.5455H30.909V12.7273Z" fill="#2E3092"/>
<path d="M36.3641 12.7273H34.5459V14.5455H36.3641V12.7273Z" fill="#2E3092"/>
<path d="M40.0008 12.7273H38.1826V14.5455H40.0008V12.7273Z" fill="#2E3092"/>
<path d="M41.8182 12.7273H40V14.5455H41.8182V12.7273Z" fill="#2E3092"/>
<path d="M20.0008 14.5457H18.1826V16.3638H20.0008V14.5457Z" fill="#2E3092"/>
<path d="M23.6365 14.5457H21.8184V16.3638H23.6365V14.5457Z" fill="#2E3092"/>
<path d="M27.2733 14.5457H25.4551V16.3638H27.2733V14.5457Z" fill="#2E3092"/>
<path d="M30.909 14.5457H29.0908V16.3638H30.909V14.5457Z" fill="#2E3092"/>
<path d="M34.5457 14.5457H32.7275V16.3638H34.5457V14.5457Z" fill="#2E3092"/>
<path d="M38.1824 14.5457H36.3643V16.3638H38.1824V14.5457Z" fill="#2E3092"/>
<path d="M41.8182 14.5457H40V16.3638H41.8182V14.5457Z" fill="#2E3092"/>
<path d="M21.8182 16.3638H20V18.182H21.8182V16.3638Z" fill="#2E3092"/>
<path d="M23.6365 16.3638H21.8184V18.182H23.6365V16.3638Z" fill="#2E3092"/>
<path d="M25.4549 16.3638H23.6367V18.182H25.4549V16.3638Z" fill="#2E3092"/>
<path d="M30.909 16.3638H29.0908V18.182H30.909V16.3638Z" fill="#2E3092"/>
<path d="M36.3641 16.3638H34.5459V18.182H36.3641V16.3638Z" fill="#2E3092"/>
<path d="M40.0008 16.3638H38.1826V18.182H40.0008V16.3638Z" fill="#2E3092"/>
<path d="M41.8182 16.3638H40V18.182H41.8182V16.3638Z" fill="#2E3092"/>
<path d="M5.4549 18.1819H3.63672V20.0001H5.4549V18.1819Z" fill="#2E3092"/>
<path d="M10.909 18.1819H9.09082V20.0001H10.909V18.1819Z" fill="#2E3092"/>
<path d="M14.5457 18.1819H12.7275V20.0001H14.5457V18.1819Z" fill="#2E3092"/>
<path d="M16.3641 18.1819H14.5459V20.0001H16.3641V18.1819Z" fill="#2E3092"/>
<path d="M20.0008 18.1819H18.1826V20.0001H20.0008V18.1819Z" fill="#2E3092"/>
<path d="M27.2733 18.1819H25.4551V20.0001H27.2733V18.1819Z" fill="#2E3092"/>
<path d="M32.7274 18.1819H30.9092V20.0001H32.7274V18.1819Z" fill="#2E3092"/>
<path d="M40.0008 18.1819H38.1826V20.0001H40.0008V18.1819Z" fill="#2E3092"/>
<path d="M43.6365 18.1819H41.8184V20.0001H43.6365V18.1819Z" fill="#2E3092"/>
<path d="M47.2733 18.1819H45.4551V20.0001H47.2733V18.1819Z" fill="#2E3092"/>
<path d="M14.5457 20H12.7275V21.8182H14.5457V20Z" fill="#2E3092"/>
<path d="M30.909 20H29.0908V21.8182H30.909V20Z" fill="#2E3092"/>
<path d="M32.7274 20H30.9092V21.8182H32.7274V20Z" fill="#2E3092"/>
<path d="M36.3641 20H34.5459V21.8182H36.3641V20Z" fill="#2E3092"/>
<path d="M45.4549 20H43.6367V21.8182H45.4549V20Z" fill="#2E3092"/>
<path d="M50.909 20H49.0908V21.8182H50.909V20Z" fill="#2E3092"/>
<path d="M56.3641 20H54.5459V21.8182H56.3641V20Z" fill="#2E3092"/>
<path d="M5.4549 21.8184H3.63672V23.6365H5.4549V21.8184Z" fill="#2E3092"/>
<path d="M9.09162 21.8184H7.27344V23.6365H9.09162V21.8184Z" fill="#2E3092"/>
<path d="M16.3641 21.8184H14.5459V23.6365H16.3641V21.8184Z" fill="#2E3092"/>
<path d="M18.1824 21.8184H16.3643V23.6365H18.1824V21.8184Z" fill="#2E3092"/>
<path d="M23.6365 21.8184H21.8184V23.6365H23.6365V21.8184Z" fill="#2E3092"/>
<path d="M25.4549 21.8184H23.6367V23.6365H25.4549V21.8184Z" fill="#2E3092"/>
<path d="M27.2733 21.8184H25.4551V23.6365H27.2733V21.8184Z" fill="#2E3092"/>
<path d="M34.5457 21.8184H32.7275V23.6365H34.5457V21.8184Z" fill="#2E3092"/>
<path d="M36.3641 21.8184H34.5459V23.6365H36.3641V21.8184Z" fill="#2E3092"/>
<path d="M38.1824 21.8184H36.3643V23.6365H38.1824V21.8184Z" fill="#2E3092"/>
<path d="M40.0008 21.8184H38.1826V23.6365H40.0008V21.8184Z" fill="#2E3092"/>
<path d="M41.8182 21.8184H40V23.6365H41.8182V21.8184Z" fill="#2E3092"/>
<path d="M43.6365 21.8184H41.8184V23.6365H43.6365V21.8184Z" fill="#2E3092"/>
<path d="M49.0916 21.8184H47.2734V23.6365H49.0916V21.8184Z" fill="#2E3092"/>
<path d="M50.909 21.8184H49.0908V23.6365H50.909V21.8184Z" fill="#2E3092"/>
<path d="M52.7274 21.8184H50.9092V23.6365H52.7274V21.8184Z" fill="#2E3092"/>
<path d="M54.5457 21.8184H52.7275V23.6365H54.5457V21.8184Z" fill="#2E3092"/>
<path d="M7.27326 23.6365H5.45508V25.4547H7.27326V23.6365Z" fill="#2E3092"/>
<path d="M12.7274 23.6365H10.9092V25.4547H12.7274V23.6365Z" fill="#2E3092"/>
<path d="M14.5457 23.6365H12.7275V25.4547H14.5457V23.6365Z" fill="#2E3092"/>
<path d="M18.1824 23.6365H16.3643V25.4547H18.1824V23.6365Z" fill="#2E3092"/>
<path d="M21.8182 23.6365H20V25.4547H21.8182V23.6365Z" fill="#2E3092"/>
<path d="M23.6365 23.6365H21.8184V25.4547H23.6365V23.6365Z" fill="#2E3092"/>
<path d="M25.4549 23.6365H23.6367V25.4547H25.4549V23.6365Z" fill="#2E3092"/>
<path d="M27.2733 23.6365H25.4551V25.4547H27.2733V23.6365Z" fill="#2E3092"/>
<path d="M30.909 23.6365H29.0908V25.4547H30.909V23.6365Z" fill="#2E3092"/>
<path d="M32.7274 23.6365H30.9092V25.4547H32.7274V23.6365Z" fill="#2E3092"/>
<path d="M38.1824 23.6365H36.3643V25.4547H38.1824V23.6365Z" fill="#2E3092"/>
<path d="M40.0008 23.6365H38.1826V25.4547H40.0008V23.6365Z" fill="#2E3092"/>
<path d="M52.7274 23.6365H50.9092V25.4547H52.7274V23.6365Z" fill="#2E3092"/>
<path d="M54.5457 23.6365H52.7275V25.4547H54.5457V23.6365Z" fill="#2E3092"/>
<path d="M5.4549 25.4546H3.63672V27.2728H5.4549V25.4546Z" fill="#2E3092"/>
<path d="M10.909 25.4546H9.09082V27.2728H10.909V25.4546Z" fill="#2E3092"/>
<path d="M16.3641 25.4546H14.5459V27.2728H16.3641V25.4546Z" fill="#2E3092"/>
<path d="M34.5457 25.4546H32.7275V27.2728H34.5457V25.4546Z" fill="#2E3092"/>
<path d="M36.3641 25.4546H34.5459V27.2728H36.3641V25.4546Z" fill="#2E3092"/>
<path d="M43.6365 25.4546H41.8184V27.2728H43.6365V25.4546Z" fill="#2E3092"/>
<path d="M45.4549 25.4546H43.6367V27.2728H45.4549V25.4546Z" fill="#2E3092"/>
<path d="M47.2733 25.4546H45.4551V27.2728H47.2733V25.4546Z" fill="#2E3092"/>
<path d="M50.909 25.4546H49.0908V27.2728H50.909V25.4546Z" fill="#2E3092"/>
<path d="M54.5457 25.4546H52.7275V27.2728H54.5457V25.4546Z" fill="#2E3092"/>
<path d="M56.3641 25.4546H54.5459V27.2728H56.3641V25.4546Z" fill="#2E3092"/>
<path d="M5.4549 27.2729H3.63672V29.0911H5.4549V27.2729Z" fill="#2E3092"/>
<path d="M7.27326 27.2729H5.45508V29.0911H7.27326V27.2729Z" fill="#2E3092"/>
<path d="M10.909 27.2729H9.09082V29.0911H10.909V27.2729Z" fill="#2E3092"/>
<path d="M20.0008 27.2729H18.1826V29.0911H20.0008V27.2729Z" fill="#2E3092"/>
<path d="M23.6365 27.2729H21.8184V29.0911H23.6365V27.2729Z" fill="#2E3092"/>
<path d="M27.2733 27.2729H25.4551V29.0911H27.2733V27.2729Z" fill="#2E3092"/>
<path d="M32.7274 27.2729H30.9092V29.0911H32.7274V27.2729Z" fill="#2E3092"/>
<path d="M36.3641 27.2729H34.5459V29.0911H36.3641V27.2729Z" fill="#2E3092"/>
<path d="M40.0008 27.2729H38.1826V29.0911H40.0008V27.2729Z" fill="#2E3092"/>
<path d="M41.8182 27.2729H40V29.0911H41.8182V27.2729Z" fill="#2E3092"/>
<path d="M5.4549 29.0911H3.63672V30.9092H5.4549V29.0911Z" fill="#2E3092"/>
<path d="M9.09162 29.0911H7.27344V30.9092H9.09162V29.0911Z" fill="#2E3092"/>
<path d="M12.7274 29.0911H10.9092V30.9092H12.7274V29.0911Z" fill="#2E3092"/>
<path d="M16.3641 29.0911H14.5459V30.9092H16.3641V29.0911Z" fill="#2E3092"/>
<path d="M21.8182 29.0911H20V30.9092H21.8182V29.0911Z" fill="#2E3092"/>
<path d="M23.6365 29.0911H21.8184V30.9092H23.6365V29.0911Z" fill="#2E3092"/>
<path d="M25.4549 29.0911H23.6367V30.9092H25.4549V29.0911Z" fill="#2E3092"/>
<path d="M32.7274 29.0911H30.9092V30.9092H32.7274V29.0911Z" fill="#2E3092"/>
<path d="M34.5457 29.0911H32.7275V30.9092H34.5457V29.0911Z" fill="#2E3092"/>
<path d="M36.3641 29.0911H34.5459V30.9092H36.3641V29.0911Z" fill="#2E3092"/>
<path d="M45.4549 29.0911H43.6367V30.9092H45.4549V29.0911Z" fill="#2E3092"/>
<path d="M49.0916 29.0911H47.2734V30.9092H49.0916V29.0911Z" fill="#2E3092"/>
<path d="M50.909 29.0911H49.0908V30.9092H50.909V29.0911Z" fill="#2E3092"/>
<path d="M52.7274 29.0911H50.9092V30.9092H52.7274V29.0911Z" fill="#2E3092"/>
<path d="M54.5457 29.0911H52.7275V30.9092H54.5457V29.0911Z" fill="#2E3092"/>
<path d="M56.3641 29.0911H54.5459V30.9092H56.3641V29.0911Z" fill="#2E3092"/>
<path d="M10.909 30.9092H9.09082V32.7274H10.909V30.9092Z" fill="#2E3092"/>
<path d="M18.1824 30.9092H16.3643V32.7274H18.1824V30.9092Z" fill="#2E3092"/>
<path d="M29.0916 30.9092H27.2734V32.7274H29.0916V30.9092Z" fill="#2E3092"/>
<path d="M30.909 30.9092H29.0908V32.7274H30.909V30.9092Z" fill="#2E3092"/>
<path d="M34.5457 30.9092H32.7275V32.7274H34.5457V30.9092Z" fill="#2E3092"/>
<path d="M36.3641 30.9092H34.5459V32.7274H36.3641V30.9092Z" fill="#2E3092"/>
<path d="M38.1824 30.9092H36.3643V32.7274H38.1824V30.9092Z" fill="#2E3092"/>
<path d="M40.0008 30.9092H38.1826V32.7274H40.0008V30.9092Z" fill="#2E3092"/>
<path d="M45.4549 30.9092H43.6367V32.7274H45.4549V30.9092Z" fill="#2E3092"/>
<path d="M49.0916 30.9092H47.2734V32.7274H49.0916V30.9092Z" fill="#2E3092"/>
<path d="M50.909 30.9092H49.0908V32.7274H50.909V30.9092Z" fill="#2E3092"/>
<path d="M54.5457 30.9092H52.7275V32.7274H54.5457V30.9092Z" fill="#2E3092"/>
<path d="M5.4549 32.7273H3.63672V34.5455H5.4549V32.7273Z" fill="#2E3092"/>
<path d="M9.09162 32.7273H7.27344V34.5455H9.09162V32.7273Z" fill="#2E3092"/>
<path d="M10.909 32.7273H9.09082V34.5455H10.909V32.7273Z" fill="#2E3092"/>
<path d="M12.7274 32.7273H10.9092V34.5455H12.7274V32.7273Z" fill="#2E3092"/>
<path d="M14.5457 32.7273H12.7275V34.5455H14.5457V32.7273Z" fill="#2E3092"/>
<path d="M16.3641 32.7273H14.5459V34.5455H16.3641V32.7273Z" fill="#2E3092"/>
<path d="M21.8182 32.7273H20V34.5455H21.8182V32.7273Z" fill="#2E3092"/>
<path d="M23.6365 32.7273H21.8184V34.5455H23.6365V32.7273Z" fill="#2E3092"/>
<path d="M27.2733 32.7273H25.4551V34.5455H27.2733V32.7273Z" fill="#2E3092"/>
<path d="M29.0916 32.7273H27.2734V34.5455H29.0916V32.7273Z" fill="#2E3092"/>
<path d="M30.909 32.7273H29.0908V34.5455H30.909V32.7273Z" fill="#2E3092"/>
<path d="M32.7274 32.7273H30.9092V34.5455H32.7274V32.7273Z" fill="#2E3092"/>
<path d="M36.3641 32.7273H34.5459V34.5455H36.3641V32.7273Z" fill="#2E3092"/>
<path d="M41.8182 32.7273H40V34.5455H41.8182V32.7273Z" fill="#2E3092"/>
<path d="M54.5457 32.7273H52.7275V34.5455H54.5457V32.7273Z" fill="#2E3092"/>
<path d="M7.27326 34.5457H5.45508V36.3638H7.27326V34.5457Z" fill="#2E3092"/>
<path d="M10.909 34.5457H9.09082V36.3638H10.909V34.5457Z" fill="#2E3092"/>
<path d="M20.0008 34.5457H18.1826V36.3638H20.0008V34.5457Z" fill="#2E3092"/>
<path d="M23.6365 34.5457H21.8184V36.3638H23.6365V34.5457Z" fill="#2E3092"/>
<path d="M25.4549 34.5457H23.6367V36.3638H25.4549V34.5457Z" fill="#2E3092"/>
<path d="M27.2733 34.5457H25.4551V36.3638H27.2733V34.5457Z" fill="#2E3092"/>
<path d="M32.7274 34.5457H30.9092V36.3638H32.7274V34.5457Z" fill="#2E3092"/>
<path d="M36.3641 34.5457H34.5459V36.3638H36.3641V34.5457Z" fill="#2E3092"/>
<path d="M43.6365 34.5457H41.8184V36.3638H43.6365V34.5457Z" fill="#2E3092"/>
<path d="M45.4549 34.5457H43.6367V36.3638H45.4549V34.5457Z" fill="#2E3092"/>
<path d="M47.2733 34.5457H45.4551V36.3638H47.2733V34.5457Z" fill="#2E3092"/>
<path d="M50.909 34.5457H49.0908V36.3638H50.909V34.5457Z" fill="#2E3092"/>
<path d="M56.3641 34.5457H54.5459V36.3638H56.3641V34.5457Z" fill="#2E3092"/>
<path d="M5.4549 36.3638H3.63672V38.182H5.4549V36.3638Z" fill="#2E3092"/>
<path d="M10.909 36.3638H9.09082V38.182H10.909V36.3638Z" fill="#2E3092"/>
<path d="M14.5457 36.3638H12.7275V38.182H14.5457V36.3638Z" fill="#2E3092"/>
<path d="M16.3641 36.3638H14.5459V38.182H16.3641V36.3638Z" fill="#2E3092"/>
<path d="M20.0008 36.3638H18.1826V38.182H20.0008V36.3638Z" fill="#2E3092"/>
<path d="M21.8182 36.3638H20V38.182H21.8182V36.3638Z" fill="#2E3092"/>
<path d="M23.6365 36.3638H21.8184V38.182H23.6365V36.3638Z" fill="#2E3092"/>
<path d="M25.4549 36.3638H23.6367V38.182H25.4549V36.3638Z" fill="#2E3092"/>
<path d="M27.2733 36.3638H25.4551V38.182H27.2733V36.3638Z" fill="#2E3092"/>
<path d="M29.0916 36.3638H27.2734V38.182H29.0916V36.3638Z" fill="#2E3092"/>
<path d="M43.6365 36.3638H41.8184V38.182H43.6365V36.3638Z" fill="#2E3092"/>
<path d="M47.2733 36.3638H45.4551V38.182H47.2733V36.3638Z" fill="#2E3092"/>
<path d="M49.0916 36.3638H47.2734V38.182H49.0916V36.3638Z" fill="#2E3092"/>
<path d="M54.5457 36.3638H52.7275V38.182H54.5457V36.3638Z" fill="#2E3092"/>
<path d="M56.3641 36.3638H54.5459V38.182H56.3641V36.3638Z" fill="#2E3092"/>
<path d="M12.7274 38.1819H10.9092V40.0001H12.7274V38.1819Z" fill="#2E3092"/>
<path d="M14.5457 38.1819H12.7275V40.0001H14.5457V38.1819Z" fill="#2E3092"/>
<path d="M18.1824 38.1819H16.3643V40.0001H18.1824V38.1819Z" fill="#2E3092"/>
<path d="M23.6365 38.1819H21.8184V40.0001H23.6365V38.1819Z" fill="#2E3092"/>
<path d="M25.4549 38.1819H23.6367V40.0001H25.4549V38.1819Z" fill="#2E3092"/>
<path d="M27.2733 38.1819H25.4551V40.0001H27.2733V38.1819Z" fill="#2E3092"/>
<path d="M29.0916 38.1819H27.2734V40.0001H29.0916V38.1819Z" fill="#2E3092"/>
<path d="M36.3641 38.1819H34.5459V40.0001H36.3641V38.1819Z" fill="#2E3092"/>
<path d="M40.0008 38.1819H38.1826V40.0001H40.0008V38.1819Z" fill="#2E3092"/>
<path d="M41.8182 38.1819H40V40.0001H41.8182V38.1819Z" fill="#2E3092"/>
<path d="M45.4549 38.1819H43.6367V40.0001H45.4549V38.1819Z" fill="#2E3092"/>
<path d="M47.2733 38.1819H45.4551V40.0001H47.2733V38.1819Z" fill="#2E3092"/>
<path d="M54.5457 38.1819H52.7275V40.0001H54.5457V38.1819Z" fill="#2E3092"/>
<path d="M56.3641 38.1819H54.5459V40.0001H56.3641V38.1819Z" fill="#2E3092"/>
<path d="M5.4549 40H3.63672V41.8182H5.4549V40Z" fill="#2E3092"/>
<path d="M12.7274 40H10.9092V41.8182H12.7274V40Z" fill="#2E3092"/>
<path d="M16.3641 40H14.5459V41.8182H16.3641V40Z" fill="#2E3092"/>
<path d="M20.0008 40H18.1826V41.8182H20.0008V40Z" fill="#2E3092"/>
<path d="M27.2733 40H25.4551V41.8182H27.2733V40Z" fill="#2E3092"/>
<path d="M30.909 40H29.0908V41.8182H30.909V40Z" fill="#2E3092"/>
<path d="M32.7274 40H30.9092V41.8182H32.7274V40Z" fill="#2E3092"/>
<path d="M34.5457 40H32.7275V41.8182H34.5457V40Z" fill="#2E3092"/>
<path d="M38.1824 40H36.3643V41.8182H38.1824V40Z" fill="#2E3092"/>
<path d="M41.8182 40H40V41.8182H41.8182V40Z" fill="#2E3092"/>
<path d="M43.6365 40H41.8184V41.8182H43.6365V40Z" fill="#2E3092"/>
<path d="M45.4549 40H43.6367V41.8182H45.4549V40Z" fill="#2E3092"/>
<path d="M47.2733 40H45.4551V41.8182H47.2733V40Z" fill="#2E3092"/>
<path d="M49.0916 40H47.2734V41.8182H49.0916V40Z" fill="#2E3092"/>
<path d="M52.7274 40H50.9092V41.8182H52.7274V40Z" fill="#2E3092"/>
<path d="M20.0008 41.8184H18.1826V43.6365H20.0008V41.8184Z" fill="#2E3092"/>
<path d="M23.6365 41.8184H21.8184V43.6365H23.6365V41.8184Z" fill="#2E3092"/>
<path d="M25.4549 41.8184H23.6367V43.6365H25.4549V41.8184Z" fill="#2E3092"/>
<path d="M27.2733 41.8184H25.4551V43.6365H27.2733V41.8184Z" fill="#2E3092"/>
<path d="M29.0916 41.8184H27.2734V43.6365H29.0916V41.8184Z" fill="#2E3092"/>
<path d="M40.0008 41.8184H38.1826V43.6365H40.0008V41.8184Z" fill="#2E3092"/>
<path d="M41.8182 41.8184H40V43.6365H41.8182V41.8184Z" fill="#2E3092"/>
<path d="M49.0916 41.8184H47.2734V43.6365H49.0916V41.8184Z" fill="#2E3092"/>
<path d="M52.7274 41.8184H50.9092V43.6365H52.7274V41.8184Z" fill="#2E3092"/>
<path d="M54.5457 41.8184H52.7275V43.6365H54.5457V41.8184Z" fill="#2E3092"/>
<path d="M56.3641 41.8184H54.5459V43.6365H56.3641V41.8184Z" fill="#2E3092"/>
<path d="M21.8182 43.6365H20V45.4547H21.8182V43.6365Z" fill="#2E3092"/>
<path d="M23.6365 43.6365H21.8184V45.4547H23.6365V43.6365Z" fill="#2E3092"/>
<path d="M29.0916 43.6365H27.2734V45.4547H29.0916V43.6365Z" fill="#2E3092"/>
<path d="M30.909 43.6365H29.0908V45.4547H30.909V43.6365Z" fill="#2E3092"/>
<path d="M36.3641 43.6365H34.5459V45.4547H36.3641V43.6365Z" fill="#2E3092"/>
<path d="M41.8182 43.6365H40V45.4547H41.8182V43.6365Z" fill="#2E3092"/>
<path d="M45.4549 43.6365H43.6367V45.4547H45.4549V43.6365Z" fill="#2E3092"/>
<path d="M49.0916 43.6365H47.2734V45.4547H49.0916V43.6365Z" fill="#2E3092"/>
<path d="M54.5457 43.6365H52.7275V45.4547H54.5457V43.6365Z" fill="#2E3092"/>
<path d="M20.0008 45.4546H18.1826V47.2728H20.0008V45.4546Z" fill="#2E3092"/>
<path d="M21.8182 45.4546H20V47.2728H21.8182V45.4546Z" fill="#2E3092"/>
<path d="M27.2733 45.4546H25.4551V47.2728H27.2733V45.4546Z" fill="#2E3092"/>
<path d="M29.0916 45.4546H27.2734V47.2728H29.0916V45.4546Z" fill="#2E3092"/>
<path d="M32.7274 45.4546H30.9092V47.2728H32.7274V45.4546Z" fill="#2E3092"/>
<path d="M41.8182 45.4546H40V47.2728H41.8182V45.4546Z" fill="#2E3092"/>
<path d="M49.0916 45.4546H47.2734V47.2728H49.0916V45.4546Z" fill="#2E3092"/>
<path d="M50.909 45.4546H49.0908V47.2728H50.909V45.4546Z" fill="#2E3092"/>
<path d="M52.7274 45.4546H50.9092V47.2728H52.7274V45.4546Z" fill="#2E3092"/>
<path d="M54.5457 45.4546H52.7275V47.2728H54.5457V45.4546Z" fill="#2E3092"/>
<path d="M25.4549 47.2729H23.6367V49.0911H25.4549V47.2729Z" fill="#2E3092"/>
<path d="M27.2733 47.2729H25.4551V49.0911H27.2733V47.2729Z" fill="#2E3092"/>
<path d="M30.909 47.2729H29.0908V49.0911H30.909V47.2729Z" fill="#2E3092"/>
<path d="M36.3641 47.2729H34.5459V49.0911H36.3641V47.2729Z" fill="#2E3092"/>
<path d="M41.8182 47.2729H40V49.0911H41.8182V47.2729Z" fill="#2E3092"/>
<path d="M43.6365 47.2729H41.8184V49.0911H43.6365V47.2729Z" fill="#2E3092"/>
<path d="M45.4549 47.2729H43.6367V49.0911H45.4549V47.2729Z" fill="#2E3092"/>
<path d="M47.2733 47.2729H45.4551V49.0911H47.2733V47.2729Z" fill="#2E3092"/>
<path d="M49.0916 47.2729H47.2734V49.0911H49.0916V47.2729Z" fill="#2E3092"/>
<path d="M56.3641 47.2729H54.5459V49.0911H56.3641V47.2729Z" fill="#2E3092"/>
<path d="M20.0008 49.0911H18.1826V50.9092H20.0008V49.0911Z" fill="#2E3092"/>
<path d="M21.8182 49.0911H20V50.9092H21.8182V49.0911Z" fill="#2E3092"/>
<path d="M27.2733 49.0911H25.4551V50.9092H27.2733V49.0911Z" fill="#2E3092"/>
<path d="M29.0916 49.0911H27.2734V50.9092H29.0916V49.0911Z" fill="#2E3092"/>
<path d="M30.909 49.0911H29.0908V50.9092H30.909V49.0911Z" fill="#2E3092"/>
<path d="M36.3641 49.0911H34.5459V50.9092H36.3641V49.0911Z" fill="#2E3092"/>
<path d="M40.0008 49.0911H38.1826V50.9092H40.0008V49.0911Z" fill="#2E3092"/>
<path d="M45.4549 49.0911H43.6367V50.9092H45.4549V49.0911Z" fill="#2E3092"/>
<path d="M47.2733 49.0911H45.4551V50.9092H47.2733V49.0911Z" fill="#2E3092"/>
<path d="M49.0916 49.0911H47.2734V50.9092H49.0916V49.0911Z" fill="#2E3092"/>
<path d="M50.909 49.0911H49.0908V50.9092H50.909V49.0911Z" fill="#2E3092"/>
<path d="M52.7274 49.0911H50.9092V50.9092H52.7274V49.0911Z" fill="#2E3092"/>
<path d="M54.5457 49.0911H52.7275V50.9092H54.5457V49.0911Z" fill="#2E3092"/>
<path d="M21.8182 50.9092H20V52.7274H21.8182V50.9092Z" fill="#2E3092"/>
<path d="M23.6365 50.9092H21.8184V52.7274H23.6365V50.9092Z" fill="#2E3092"/>
<path d="M27.2733 50.9092H25.4551V52.7274H27.2733V50.9092Z" fill="#2E3092"/>
<path d="M34.5457 50.9092H32.7275V52.7274H34.5457V50.9092Z" fill="#2E3092"/>
<path d="M36.3641 50.9092H34.5459V52.7274H36.3641V50.9092Z" fill="#2E3092"/>
<path d="M38.1824 50.9092H36.3643V52.7274H38.1824V50.9092Z" fill="#2E3092"/>
<path d="M41.8182 50.9092H40V52.7274H41.8182V50.9092Z" fill="#2E3092"/>
<path d="M49.0916 50.9092H47.2734V52.7274H49.0916V50.9092Z" fill="#2E3092"/>
<path d="M50.909 50.9092H49.0908V52.7274H50.909V50.9092Z" fill="#2E3092"/>
<path d="M52.7274 50.9092H50.9092V52.7274H52.7274V50.9092Z" fill="#2E3092"/>
<path d="M56.3641 50.9092H54.5459V52.7274H56.3641V50.9092Z" fill="#2E3092"/>
<path d="M21.8182 52.7273H20V54.5455H21.8182V52.7273Z" fill="#2E3092"/>
<path d="M23.6365 52.7273H21.8184V54.5455H23.6365V52.7273Z" fill="#2E3092"/>
<path d="M32.7274 52.7273H30.9092V54.5455H32.7274V52.7273Z" fill="#2E3092"/>
<path d="M36.3641 52.7273H34.5459V54.5455H36.3641V52.7273Z" fill="#2E3092"/>
<path d="M38.1824 52.7273H36.3643V54.5455H38.1824V52.7273Z" fill="#2E3092"/>
<path d="M40.0008 52.7273H38.1826V54.5455H40.0008V52.7273Z" fill="#2E3092"/>
<path d="M41.8182 52.7273H40V54.5455H41.8182V52.7273Z" fill="#2E3092"/>
<path d="M49.0916 52.7273H47.2734V54.5455H49.0916V52.7273Z" fill="#2E3092"/>
<path d="M54.5457 52.7273H52.7275V54.5455H54.5457V52.7273Z" fill="#2E3092"/>
<path d="M20.0008 54.5457H18.1826V56.3638H20.0008V54.5457Z" fill="#2E3092"/>
<path d="M23.6365 54.5457H21.8184V56.3638H23.6365V54.5457Z" fill="#2E3092"/>
<path d="M27.2733 54.5457H25.4551V56.3638H27.2733V54.5457Z" fill="#2E3092"/>
<path d="M29.0916 54.5457H27.2734V56.3638H29.0916V54.5457Z" fill="#2E3092"/>
<path d="M30.909 54.5457H29.0908V56.3638H30.909V54.5457Z" fill="#2E3092"/>
<path d="M34.5457 54.5457H32.7275V56.3638H34.5457V54.5457Z" fill="#2E3092"/>
<path d="M36.3641 54.5457H34.5459V56.3638H36.3641V54.5457Z" fill="#2E3092"/>
<path d="M41.8182 54.5457H40V56.3638H41.8182V54.5457Z" fill="#2E3092"/>
<path d="M43.6365 54.5457H41.8184V56.3638H43.6365V54.5457Z" fill="#2E3092"/>
<path d="M49.0916 54.5457H47.2734V56.3638H49.0916V54.5457Z" fill="#2E3092"/>
<path d="M50.909 54.5457H49.0908V56.3638H50.909V54.5457Z" fill="#2E3092"/>
<path d="M54.5457 54.5457H52.7275V56.3638H54.5457V54.5457Z" fill="#2E3092"/>
<path d="M14.4549 3.63647H5.54581H3.63672V5.54557V14.4547V16.3637H5.54581H14.4549H16.364V14.4547V5.54557V3.63647H14.4549ZM14.4549 14.4547H5.54581V5.54557H14.4549V14.4547Z" fill="#2E3092"/>
<path d="M54.4549 3.63647H45.5458H43.6367V5.54557V14.4547V16.3637H45.5458H54.4549H56.364V14.4547V5.54557V3.63647H54.4549ZM54.4549 14.4547H45.5458V5.54557H54.4549V14.4547Z" fill="#2E3092"/>
<path d="M14.4549 43.6365H5.54581H3.63672V45.5456V54.4547V56.3637H5.54581H14.4549H16.364V54.4547V45.5456V43.6365H14.4549ZM14.4549 54.4547H5.54581V45.5456H14.4549V54.4547Z" fill="#2E3092"/>
<path d="M12.728 7.27295H7.27344V12.7275H12.728V7.27295Z" fill="#2E3092"/>
<path d="M52.728 7.27295H47.2734V12.7275H52.728V7.27295Z" fill="#2E3092"/>
<path d="M12.728 47.2729H7.27344V52.7275H12.728V47.2729Z" fill="#2E3092"/>
</g>
<defs>
<clipPath id="clip0_39_10496">
<rect width="60" height="60" fill="white"/>
</clipPath>
</defs>
</svg>
