<svg width="40" height="40" viewBox="0 0 40 40" fill="none" xmlns="http://www.w3.org/2000/svg">
<rect width="40" height="40" fill="#2E3092"/>
<mask id="mask0_8_143" style="mask-type:alpha" maskUnits="userSpaceOnUse" x="0" y="0" width="40" height="40">
<rect width="40" height="40" fill="#505050"/>
</mask>
<g mask="url(#mask0_8_143)">
<path d="M27.2703 6.90396e-05C28.7175 1.446 29.5307 3.4076 29.5307 5.45315C29.5307 7.49871 28.7175 9.46082 27.2703 10.9068C25.8231 12.3527 25.0103 14.3143 25.0103 16.3593C25.0103 18.4054 25.8231 20.367 27.2703 21.8129C28.7175 23.2589 29.5307 25.2205 29.5307 27.266C29.5307 29.3121 28.7175 31.2737 27.2703 32.7196C25.8231 34.1655 25.0103 36.1271 25.0103 38.1727C25.0103 40.2188 25.8231 42.1804 27.2703 43.6263C28.7175 45.0722 29.5307 47.0338 29.5307 49.0794C29.5307 51.1244 28.7175 53.0865 27.2703 54.5325C25.8231 55.9789 25.0103 57.9405 25.0103 59.9856C25.0103 62.0311 25.8231 63.9932 27.2703 65.4391C28.7175 66.8851 29.5307 68.8467 29.5307 70.8922C29.5307 72.9378 28.7175 74.8994 27.2703 76.3453C25.8231 77.7918 25.0103 79.7534 25.0103 81.7989C25.0103 83.8445 25.8231 85.8061 27.2703 87.252L21.8164 92.632L16.3625 87.252C17.8097 85.8061 18.6224 83.8445 18.6224 81.7989C18.6224 79.7534 17.8097 77.7918 16.3625 76.3453C14.9153 74.8994 14.1021 72.9378 14.1021 70.8922C14.1021 68.8467 14.9153 66.8851 16.3625 65.4391C17.8097 63.9932 18.6224 62.0311 18.6224 59.9856C18.6224 57.9405 17.8097 55.9789 16.3625 54.5325C14.9153 53.0865 14.1021 51.1244 14.1021 49.0794C14.1021 47.0338 14.9153 45.0722 16.3625 43.6263C17.8097 42.1804 18.6224 40.2188 18.6224 38.1727C18.6224 36.1271 17.8097 34.1655 16.3625 32.7196C14.9153 31.2737 14.1021 29.3121 14.1021 27.266C14.1021 25.2205 14.9153 23.2589 16.3625 21.8129C17.8097 20.367 18.6224 18.4054 18.6224 16.3593C18.6224 14.3143 17.8097 12.3527 16.3625 10.9068C14.9153 9.46082 14.1021 7.49871 14.1021 5.45315C14.1021 3.4076 14.9153 1.446 16.3625 6.90396e-05" stroke="white" stroke-width="1.06667" stroke-linecap="square"/>
<path d="M49.0916 6.90396e-05C50.5387 1.446 51.352 3.4076 51.352 5.45315C51.352 7.49871 50.5387 9.46082 49.0916 10.9068C47.6444 12.3527 46.8316 14.3143 46.8316 16.3593C46.8316 18.4054 47.6444 20.367 49.0916 21.8129C50.5387 23.2589 51.352 25.2205 51.352 27.266C51.352 29.3121 50.5387 31.2737 49.0916 32.7196C47.6444 34.1655 46.8316 36.1271 46.8316 38.1727C46.8316 40.2188 47.6444 42.1804 49.0916 43.6263C50.5387 45.0722 51.352 47.0338 51.352 49.0794C51.352 51.1244 50.5387 53.0865 49.0916 54.5325C47.6444 55.9789 46.8316 57.9405 46.8316 59.9856C46.8316 62.0311 47.6444 63.9932 49.0916 65.4391C50.5387 66.8851 51.352 68.8467 51.352 70.8922C51.352 72.9378 50.5387 74.8994 49.0916 76.3453C47.6444 77.7918 46.8316 79.7534 46.8316 81.7989C46.8316 83.8445 47.6444 85.8061 49.0916 87.252L43.6382 92.632L38.1838 87.252C39.631 85.8061 40.4437 83.8445 40.4437 81.7989C40.4437 79.7534 39.631 77.7918 38.1838 76.3453C36.7366 74.8994 35.9233 72.9378 35.9233 70.8922C35.9233 68.8467 36.7366 66.8851 38.1838 65.4391C39.631 63.9932 40.4437 62.0311 40.4437 59.9856C40.4437 57.9405 39.631 55.9789 38.1838 54.5325C36.7366 53.0865 35.9233 51.1244 35.9233 49.0794C35.9233 47.0338 36.7366 45.0722 38.1838 43.6263C39.631 42.1804 40.4437 40.2188 40.4437 38.1727C40.4437 36.1271 39.631 34.1655 38.1838 32.7196C36.7366 31.2737 35.9233 29.3121 35.9233 27.266C35.9233 25.2205 36.7366 23.2589 38.1838 21.8129C39.631 20.367 40.4437 18.4054 40.4437 16.3593C40.4437 14.3143 39.631 12.3527 38.1838 10.9068C36.7366 9.46082 35.9233 7.49871 35.9233 5.45315C35.9233 3.4076 36.7366 1.446 38.1838 6.90396e-05" stroke="white" stroke-width="1.06667" stroke-linecap="square"/>
<path d="M5.45437 6.90396e-05C6.90156 1.446 7.7143 3.4076 7.7143 5.45315C7.7143 7.49871 6.90156 9.46082 5.45437 10.9068C4.00719 12.3527 3.19393 14.3143 3.19393 16.3593C3.19393 18.4054 4.00719 20.367 5.45437 21.8129C6.90156 23.2589 7.7143 25.2205 7.7143 27.266C7.7143 29.3121 6.90156 31.2737 5.45437 32.7196C4.00719 34.1655 3.19393 36.1271 3.19393 38.1727C3.19393 40.2188 4.00719 42.1804 5.45437 43.6263C6.90156 45.0722 7.7143 47.0338 7.7143 49.0794C7.7143 51.1244 6.90156 53.0865 5.45437 54.5325C4.00719 55.9789 3.19393 57.9405 3.19393 59.9856C3.19393 62.0311 4.00719 63.9932 5.45437 65.4391C6.90156 66.8851 7.7143 68.8467 7.7143 70.8922C7.7143 72.9378 6.90156 74.8994 5.45437 76.3453C4.00719 77.7918 3.19393 79.7534 3.19393 81.7989C3.19393 83.8445 4.00719 85.8061 5.45437 87.252L0.000488281 92.632" stroke="white" stroke-width="1.06667" stroke-linecap="square"/>
</g>
</svg>
